<mxfile host="app.diagrams.net" modified="2022-11-23T00:28:58.699Z" agent="5.0 (Windows NT 10.0; Win64; x64) AppleWebKit/537.36 (KHTML, like Gecko) Chrome/107.0.0.0 Safari/537.36" etag="6j6Uwpe5enM-gAC7tzHa" version="20.5.3" type="github">
  <diagram id="EBs3eoclZNxCUd93gEGw" name="Page-1">
    <mxGraphModel dx="1313" dy="2060" grid="1" gridSize="10" guides="1" tooltips="1" connect="1" arrows="1" fold="1" page="1" pageScale="1" pageWidth="850" pageHeight="1100" math="0" shadow="0">
      <root>
        <mxCell id="0" />
        <mxCell id="1" parent="0" />
        <mxCell id="Si6ZbvaaQqSnE2KLARDV-79" value="Moving heads" style="swimlane;" parent="1" vertex="1">
          <mxGeometry x="2810" y="870" width="510" height="570" as="geometry" />
        </mxCell>
        <mxCell id="X8WdXMTReOl_9unOQ_UK-8" value="Movement" style="swimlane;horizontal=0;" parent="Si6ZbvaaQqSnE2KLARDV-79" vertex="1">
          <mxGeometry x="15" y="160" width="490" height="100" as="geometry" />
        </mxCell>
        <mxCell id="X8WdXMTReOl_9unOQ_UK-9" value="BEAT" style="labelPosition=center;verticalLabelPosition=middle;align=center;html=1;shape=mxgraph.basic.shaded_button;dx=10;fillColor=#E6E6E6;strokeColor=none;" parent="X8WdXMTReOl_9unOQ_UK-8" vertex="1">
          <mxGeometry x="25" width="105" height="100" as="geometry" />
        </mxCell>
        <mxCell id="X8WdXMTReOl_9unOQ_UK-10" value="X" style="labelPosition=center;verticalLabelPosition=middle;align=center;html=1;shape=mxgraph.basic.shaded_button;dx=10;fillColor=#E6E6E6;strokeColor=none;" parent="X8WdXMTReOl_9unOQ_UK-8" vertex="1">
          <mxGeometry x="150" y="20" width="100" height="60" as="geometry" />
        </mxCell>
        <mxCell id="X8WdXMTReOl_9unOQ_UK-12" value="Random" style="labelPosition=center;verticalLabelPosition=middle;align=center;html=1;shape=mxgraph.basic.shaded_button;dx=10;fillColor=#E6E6E6;strokeColor=none;" parent="X8WdXMTReOl_9unOQ_UK-8" vertex="1">
          <mxGeometry x="375" y="20" width="100" height="60" as="geometry" />
        </mxCell>
        <mxCell id="X8WdXMTReOl_9unOQ_UK-11" value="&lt;div&gt;Y&lt;/div&gt;" style="labelPosition=center;verticalLabelPosition=middle;align=center;html=1;shape=mxgraph.basic.shaded_button;dx=10;fillColor=#E6E6E6;strokeColor=none;" parent="X8WdXMTReOl_9unOQ_UK-8" vertex="1">
          <mxGeometry x="265" y="20" width="100" height="60" as="geometry" />
        </mxCell>
        <mxCell id="X8WdXMTReOl_9unOQ_UK-13" value="Light" style="swimlane;horizontal=0;" parent="Si6ZbvaaQqSnE2KLARDV-79" vertex="1">
          <mxGeometry x="10" y="270" width="490" height="100" as="geometry" />
        </mxCell>
        <mxCell id="X8WdXMTReOl_9unOQ_UK-14" value="OFF" style="labelPosition=center;verticalLabelPosition=middle;align=center;html=1;shape=mxgraph.basic.shaded_button;dx=10;fillColor=#E6E6E6;strokeColor=none;" parent="X8WdXMTReOl_9unOQ_UK-13" vertex="1">
          <mxGeometry x="35" y="10" width="80" height="80" as="geometry" />
        </mxCell>
        <mxCell id="X8WdXMTReOl_9unOQ_UK-15" value="Always" style="labelPosition=center;verticalLabelPosition=middle;align=center;html=1;shape=mxgraph.basic.shaded_button;dx=10;fillColor=#E6E6E6;strokeColor=none;" parent="X8WdXMTReOl_9unOQ_UK-13" vertex="1">
          <mxGeometry x="125" y="10" width="80" height="80" as="geometry" />
        </mxCell>
        <mxCell id="X8WdXMTReOl_9unOQ_UK-16" value="Out -&amp;gt; In" style="labelPosition=center;verticalLabelPosition=middle;align=center;html=1;shape=mxgraph.basic.shaded_button;dx=10;fillColor=#E6E6E6;strokeColor=none;" parent="X8WdXMTReOl_9unOQ_UK-13" vertex="1">
          <mxGeometry x="305" y="10" width="80" height="80" as="geometry" />
        </mxCell>
        <mxCell id="X8WdXMTReOl_9unOQ_UK-17" value="In -&amp;gt; Out" style="labelPosition=center;verticalLabelPosition=middle;align=center;html=1;shape=mxgraph.basic.shaded_button;dx=10;fillColor=#E6E6E6;strokeColor=none;" parent="X8WdXMTReOl_9unOQ_UK-13" vertex="1">
          <mxGeometry x="215" y="10" width="80" height="80" as="geometry" />
        </mxCell>
        <mxCell id="X8WdXMTReOl_9unOQ_UK-18" value="&lt;div&gt;Spot&lt;/div&gt;&lt;div&gt;Flash&lt;br&gt;&lt;/div&gt;" style="labelPosition=center;verticalLabelPosition=middle;align=center;html=1;shape=mxgraph.basic.shaded_button;dx=10;fillColor=#E6E6E6;strokeColor=none;" parent="X8WdXMTReOl_9unOQ_UK-13" vertex="1">
          <mxGeometry x="395" y="10" width="80" height="80" as="geometry" />
        </mxCell>
        <mxCell id="X8WdXMTReOl_9unOQ_UK-19" value="Gobo" style="swimlane;horizontal=0;" parent="Si6ZbvaaQqSnE2KLARDV-79" vertex="1">
          <mxGeometry x="100" y="30" width="400" height="120" as="geometry" />
        </mxCell>
        <mxCell id="X8WdXMTReOl_9unOQ_UK-20" value="&lt;div&gt;&lt;span style=&quot;background-color: initial;&quot;&gt;Spin&lt;/span&gt;&lt;br&gt;&lt;/div&gt;" style="labelPosition=center;verticalLabelPosition=middle;align=center;html=1;shape=mxgraph.basic.shaded_button;dx=10;fillColor=#E6E6E6;strokeColor=none;" parent="X8WdXMTReOl_9unOQ_UK-19" vertex="1">
          <mxGeometry x="30" y="20" width="80" height="80" as="geometry" />
        </mxCell>
        <mxCell id="X8WdXMTReOl_9unOQ_UK-21" value="&lt;div&gt;Shake&lt;/div&gt;" style="labelPosition=center;verticalLabelPosition=middle;align=center;html=1;shape=mxgraph.basic.shaded_button;dx=10;fillColor=#E6E6E6;strokeColor=none;" parent="X8WdXMTReOl_9unOQ_UK-19" vertex="1">
          <mxGeometry x="120" y="20" width="80" height="80" as="geometry" />
        </mxCell>
        <mxCell id="X8WdXMTReOl_9unOQ_UK-23" value="DEFAULT" style="labelPosition=center;verticalLabelPosition=middle;align=center;html=1;shape=mxgraph.basic.shaded_button;dx=10;fillColor=#E6E6E6;strokeColor=none;" parent="X8WdXMTReOl_9unOQ_UK-19" vertex="1">
          <mxGeometry x="210" y="20" width="80" height="80" as="geometry" />
        </mxCell>
        <mxCell id="LFXs0zO8Hx01GmSGuNnJ-122" value="Random" style="labelPosition=center;verticalLabelPosition=middle;align=center;html=1;shape=mxgraph.basic.shaded_button;dx=10;fillColor=#E6E6E6;strokeColor=none;" parent="X8WdXMTReOl_9unOQ_UK-19" vertex="1">
          <mxGeometry x="305" y="20" width="80" height="80" as="geometry" />
        </mxCell>
        <mxCell id="Si6ZbvaaQqSnE2KLARDV-82" value="Save Management" style="swimlane;" parent="1" vertex="1">
          <mxGeometry x="2705" y="1910" width="330" height="240" as="geometry" />
        </mxCell>
        <mxCell id="Si6ZbvaaQqSnE2KLARDV-92" value="Save 1 &quot;EASY&quot;" style="swimlane;" parent="Si6ZbvaaQqSnE2KLARDV-82" vertex="1">
          <mxGeometry x="10" y="30" width="210" height="100" as="geometry">
            <mxRectangle x="10" y="30" width="120" height="30" as="alternateBounds" />
          </mxGeometry>
        </mxCell>
        <mxCell id="Si6ZbvaaQqSnE2KLARDV-93" value="Display" style="labelPosition=center;verticalLabelPosition=middle;align=center;html=1;shape=mxgraph.basic.shaded_button;dx=10;fillColor=#E6E6E6;strokeColor=none;" parent="Si6ZbvaaQqSnE2KLARDV-92" vertex="1">
          <mxGeometry x="10" y="30" width="90" height="60" as="geometry" />
        </mxCell>
        <mxCell id="Si6ZbvaaQqSnE2KLARDV-94" value="Überschreiben" style="labelPosition=center;verticalLabelPosition=middle;align=center;html=1;shape=mxgraph.basic.shaded_button;dx=10;fillColor=#E6E6E6;strokeColor=none;" parent="Si6ZbvaaQqSnE2KLARDV-92" vertex="1">
          <mxGeometry x="110" y="30" width="90" height="60" as="geometry" />
        </mxCell>
        <mxCell id="Si6ZbvaaQqSnE2KLARDV-95" value="Save 2 &quot;PREPARATION&quot;" style="swimlane;" parent="Si6ZbvaaQqSnE2KLARDV-82" vertex="1">
          <mxGeometry x="10" y="130" width="210" height="100" as="geometry" />
        </mxCell>
        <mxCell id="Si6ZbvaaQqSnE2KLARDV-97" value="Display" style="labelPosition=center;verticalLabelPosition=middle;align=center;html=1;shape=mxgraph.basic.shaded_button;dx=10;fillColor=#E6E6E6;strokeColor=none;" parent="Si6ZbvaaQqSnE2KLARDV-95" vertex="1">
          <mxGeometry x="10" y="30" width="90" height="60" as="geometry" />
        </mxCell>
        <mxCell id="Si6ZbvaaQqSnE2KLARDV-98" value="Überschreiben" style="labelPosition=center;verticalLabelPosition=middle;align=center;html=1;shape=mxgraph.basic.shaded_button;dx=10;fillColor=#E6E6E6;strokeColor=none;" parent="Si6ZbvaaQqSnE2KLARDV-95" vertex="1">
          <mxGeometry x="110" y="30" width="90" height="60" as="geometry" />
        </mxCell>
        <mxCell id="tadGC4-IvMpw1Pa7mxWx-94" value="Switch" style="labelPosition=center;verticalLabelPosition=middle;align=center;html=1;shape=mxgraph.basic.shaded_button;dx=10;fillColor=#E6E6E6;strokeColor=none;" vertex="1" parent="Si6ZbvaaQqSnE2KLARDV-82">
          <mxGeometry x="230" y="60" width="90" height="60" as="geometry" />
        </mxCell>
        <mxCell id="Si6ZbvaaQqSnE2KLARDV-139" value="LED Stripes" style="swimlane;" parent="1" vertex="1">
          <mxGeometry x="2190" y="870" width="600" height="610" as="geometry" />
        </mxCell>
        <mxCell id="m81HcdqTAT4RKeZ4J-Iu-4" value="Stripe choice" style="swimlane;horizontal=0;" parent="Si6ZbvaaQqSnE2KLARDV-139" vertex="1">
          <mxGeometry x="360" y="370" width="205" height="120" as="geometry" />
        </mxCell>
        <mxCell id="m81HcdqTAT4RKeZ4J-Iu-5" value="All as one" style="labelPosition=center;verticalLabelPosition=middle;align=center;html=1;shape=mxgraph.basic.shaded_button;dx=10;fillColor=#E6E6E6;strokeColor=none;" parent="m81HcdqTAT4RKeZ4J-Iu-4" vertex="1">
          <mxGeometry x="30" y="20" width="80" height="80" as="geometry" />
        </mxCell>
        <mxCell id="m81HcdqTAT4RKeZ4J-Iu-6" value="Individually" style="labelPosition=center;verticalLabelPosition=middle;align=center;html=1;shape=mxgraph.basic.shaded_button;dx=10;fillColor=#E6E6E6;strokeColor=none;" parent="m81HcdqTAT4RKeZ4J-Iu-4" vertex="1">
          <mxGeometry x="120" y="20" width="80" height="80" as="geometry" />
        </mxCell>
        <mxCell id="DIamjsAeuccOloleiY1Q-3" value="Alternating" style="text;html=1;align=center;verticalAlign=middle;resizable=0;points=[];autosize=1;strokeColor=none;fillColor=none;" parent="m81HcdqTAT4RKeZ4J-Iu-4" vertex="1">
          <mxGeometry x="70" width="80" height="30" as="geometry" />
        </mxCell>
        <mxCell id="m81HcdqTAT4RKeZ4J-Iu-10" value="Animations" style="swimlane;horizontal=0;" parent="Si6ZbvaaQqSnE2KLARDV-139" vertex="1">
          <mxGeometry x="10" y="160" width="580" height="190" as="geometry" />
        </mxCell>
        <mxCell id="m81HcdqTAT4RKeZ4J-Iu-11" value="OFF" style="labelPosition=center;verticalLabelPosition=middle;align=center;html=1;shape=mxgraph.basic.shaded_button;dx=10;fillColor=#E6E6E6;strokeColor=none;" parent="m81HcdqTAT4RKeZ4J-Iu-10" vertex="1">
          <mxGeometry x="35" y="10" width="80" height="80" as="geometry" />
        </mxCell>
        <mxCell id="m81HcdqTAT4RKeZ4J-Iu-12" value="RANDOM" style="labelPosition=center;verticalLabelPosition=middle;align=center;html=1;shape=mxgraph.basic.shaded_button;dx=10;fillColor=#E6E6E6;strokeColor=none;" parent="m81HcdqTAT4RKeZ4J-Iu-10" vertex="1">
          <mxGeometry x="125" y="10" width="80" height="80" as="geometry" />
        </mxCell>
        <mxCell id="m81HcdqTAT4RKeZ4J-Iu-13" value="RAINDROP" style="labelPosition=center;verticalLabelPosition=middle;align=center;html=1;shape=mxgraph.basic.shaded_button;dx=10;fillColor=#E6E6E6;strokeColor=none;" parent="m81HcdqTAT4RKeZ4J-Iu-10" vertex="1">
          <mxGeometry x="305" y="10" width="80" height="80" as="geometry" />
        </mxCell>
        <mxCell id="m81HcdqTAT4RKeZ4J-Iu-14" value="SNAKE" style="labelPosition=center;verticalLabelPosition=middle;align=center;html=1;shape=mxgraph.basic.shaded_button;dx=10;fillColor=#E6E6E6;strokeColor=none;" parent="m81HcdqTAT4RKeZ4J-Iu-10" vertex="1">
          <mxGeometry x="215" y="10" width="80" height="80" as="geometry" />
        </mxCell>
        <mxCell id="m81HcdqTAT4RKeZ4J-Iu-15" value="EXPLOSION" style="labelPosition=center;verticalLabelPosition=middle;align=center;html=1;shape=mxgraph.basic.shaded_button;dx=10;fillColor=#E6E6E6;strokeColor=none;" parent="m81HcdqTAT4RKeZ4J-Iu-10" vertex="1">
          <mxGeometry x="395" y="10" width="80" height="80" as="geometry" />
        </mxCell>
        <mxCell id="m81HcdqTAT4RKeZ4J-Iu-19" value="Always" style="labelPosition=center;verticalLabelPosition=middle;align=center;html=1;shape=mxgraph.basic.shaded_button;dx=10;fillColor=#E6E6E6;strokeColor=none;" parent="m81HcdqTAT4RKeZ4J-Iu-10" vertex="1">
          <mxGeometry x="35" y="100" width="80" height="80" as="geometry" />
        </mxCell>
        <mxCell id="m81HcdqTAT4RKeZ4J-Iu-20" value="SPARCLES" style="labelPosition=center;verticalLabelPosition=middle;align=center;html=1;shape=mxgraph.basic.shaded_button;dx=10;fillColor=#E6E6E6;strokeColor=none;" parent="m81HcdqTAT4RKeZ4J-Iu-10" vertex="1">
          <mxGeometry x="125" y="100" width="80" height="80" as="geometry" />
        </mxCell>
        <mxCell id="m81HcdqTAT4RKeZ4J-Iu-21" value="&lt;div&gt;Sliding&lt;/div&gt;&lt;div&gt;Blocks&lt;/div&gt;" style="labelPosition=center;verticalLabelPosition=middle;align=center;html=1;shape=mxgraph.basic.shaded_button;dx=10;fillColor=#E6E6E6;strokeColor=none;" parent="m81HcdqTAT4RKeZ4J-Iu-10" vertex="1">
          <mxGeometry x="215" y="100" width="80" height="80" as="geometry" />
        </mxCell>
        <mxCell id="m81HcdqTAT4RKeZ4J-Iu-22" value="&lt;div&gt;FLASH&lt;/div&gt;&lt;div&gt;HOLD&lt;br&gt;&lt;/div&gt;" style="labelPosition=center;verticalLabelPosition=middle;align=center;html=1;shape=mxgraph.basic.shaded_button;dx=10;fillColor=#E6E6E6;strokeColor=none;" parent="m81HcdqTAT4RKeZ4J-Iu-10" vertex="1">
          <mxGeometry x="305" y="100" width="80" height="80" as="geometry" />
        </mxCell>
        <mxCell id="m81HcdqTAT4RKeZ4J-Iu-23" value="&lt;div&gt;FLASH&lt;/div&gt;&lt;div&gt;FADE&lt;br&gt;&lt;/div&gt;" style="labelPosition=center;verticalLabelPosition=middle;align=center;html=1;shape=mxgraph.basic.shaded_button;dx=10;fillColor=#E6E6E6;strokeColor=none;" parent="m81HcdqTAT4RKeZ4J-Iu-10" vertex="1">
          <mxGeometry x="395" y="100" width="80" height="80" as="geometry" />
        </mxCell>
        <mxCell id="m81HcdqTAT4RKeZ4J-Iu-24" value="IMPLOSION" style="labelPosition=center;verticalLabelPosition=middle;align=center;html=1;shape=mxgraph.basic.shaded_button;dx=10;fillColor=#E6E6E6;strokeColor=none;" parent="m81HcdqTAT4RKeZ4J-Iu-10" vertex="1">
          <mxGeometry x="490" y="10" width="80" height="80" as="geometry" />
        </mxCell>
        <mxCell id="m81HcdqTAT4RKeZ4J-Iu-25" value="&lt;div&gt;PEGEL&lt;/div&gt;&lt;div&gt;LEVEL&lt;br&gt;&lt;/div&gt;" style="labelPosition=center;verticalLabelPosition=middle;align=center;html=1;shape=mxgraph.basic.shaded_button;dx=10;fillColor=#E6E6E6;strokeColor=none;" parent="m81HcdqTAT4RKeZ4J-Iu-10" vertex="1">
          <mxGeometry x="490" y="100" width="80" height="80" as="geometry" />
        </mxCell>
        <mxCell id="m81HcdqTAT4RKeZ4J-Iu-16" value="Direction" style="swimlane;horizontal=0;" parent="Si6ZbvaaQqSnE2KLARDV-139" vertex="1">
          <mxGeometry x="20" y="370" width="230" height="180" as="geometry" />
        </mxCell>
        <mxCell id="m81HcdqTAT4RKeZ4J-Iu-17" value="UP" style="labelPosition=center;verticalLabelPosition=middle;align=center;html=1;shape=mxgraph.basic.shaded_button;dx=10;fillColor=#E6E6E6;strokeColor=none;" parent="m81HcdqTAT4RKeZ4J-Iu-16" vertex="1">
          <mxGeometry x="135" y="10" width="80" height="80" as="geometry" />
        </mxCell>
        <mxCell id="m81HcdqTAT4RKeZ4J-Iu-18" value="DOWN" style="labelPosition=center;verticalLabelPosition=middle;align=center;html=1;shape=mxgraph.basic.shaded_button;dx=10;fillColor=#E6E6E6;strokeColor=none;" parent="m81HcdqTAT4RKeZ4J-Iu-16" vertex="1">
          <mxGeometry x="135" y="100" width="80" height="80" as="geometry" />
        </mxCell>
        <mxCell id="DIamjsAeuccOloleiY1Q-4" value="Together possible" style="text;html=1;align=center;verticalAlign=middle;resizable=0;points=[];autosize=1;strokeColor=none;fillColor=none;" parent="m81HcdqTAT4RKeZ4J-Iu-16" vertex="1">
          <mxGeometry x="15" y="70" width="120" height="30" as="geometry" />
        </mxCell>
        <mxCell id="m81HcdqTAT4RKeZ4J-Iu-26" value="BEAT" style="labelPosition=center;verticalLabelPosition=middle;align=center;html=1;shape=mxgraph.basic.shaded_button;dx=10;fillColor=#E6E6E6;strokeColor=none;" parent="Si6ZbvaaQqSnE2KLARDV-139" vertex="1">
          <mxGeometry x="210" y="30" width="170" height="120" as="geometry" />
        </mxCell>
        <mxCell id="DIamjsAeuccOloleiY1Q-1" value="Dimmer" style="shape=image;html=1;verticalAlign=top;verticalLabelPosition=bottom;labelBackgroundColor=#ffffff;imageAspect=0;aspect=fixed;image=https://cdn3.iconfinder.com/data/icons/energy-and-power-glyph-24-px/24/Analog_device_gauge_gauge_meter_pressure_gauge_speedometer-128.png" parent="Si6ZbvaaQqSnE2KLARDV-139" vertex="1">
          <mxGeometry x="40" y="55" width="70" height="70" as="geometry" />
        </mxCell>
        <mxCell id="Si6ZbvaaQqSnE2KLARDV-184" value="Laser" style="swimlane;" parent="1" vertex="1">
          <mxGeometry x="10" y="-610" width="330" height="610" as="geometry" />
        </mxCell>
        <mxCell id="Si6ZbvaaQqSnE2KLARDV-185" value="" style="labelPosition=center;verticalLabelPosition=middle;align=center;html=1;shape=mxgraph.basic.shaded_button;dx=10;fillColor=#E6E6E6;strokeColor=none;" parent="Si6ZbvaaQqSnE2KLARDV-184" vertex="1">
          <mxGeometry x="20" y="40" width="130" height="60" as="geometry" />
        </mxCell>
        <mxCell id="Si6ZbvaaQqSnE2KLARDV-186" value="" style="labelPosition=center;verticalLabelPosition=middle;align=center;html=1;shape=mxgraph.basic.shaded_button;dx=10;fillColor=#E6E6E6;strokeColor=none;" parent="Si6ZbvaaQqSnE2KLARDV-184" vertex="1">
          <mxGeometry x="180" y="110" width="130" height="60" as="geometry" />
        </mxCell>
        <mxCell id="Si6ZbvaaQqSnE2KLARDV-187" value="" style="labelPosition=center;verticalLabelPosition=middle;align=center;html=1;shape=mxgraph.basic.shaded_button;dx=10;fillColor=#E6E6E6;strokeColor=none;" parent="Si6ZbvaaQqSnE2KLARDV-184" vertex="1">
          <mxGeometry x="20" y="180" width="130" height="60" as="geometry" />
        </mxCell>
        <mxCell id="Si6ZbvaaQqSnE2KLARDV-188" value="" style="labelPosition=center;verticalLabelPosition=middle;align=center;html=1;shape=mxgraph.basic.shaded_button;dx=10;fillColor=#E6E6E6;strokeColor=none;" parent="Si6ZbvaaQqSnE2KLARDV-184" vertex="1">
          <mxGeometry x="180" y="180" width="130" height="60" as="geometry" />
        </mxCell>
        <mxCell id="Si6ZbvaaQqSnE2KLARDV-189" value="" style="labelPosition=center;verticalLabelPosition=middle;align=center;html=1;shape=mxgraph.basic.shaded_button;dx=10;fillColor=#E6E6E6;strokeColor=none;" parent="Si6ZbvaaQqSnE2KLARDV-184" vertex="1">
          <mxGeometry x="180" y="40" width="130" height="60" as="geometry" />
        </mxCell>
        <mxCell id="Si6ZbvaaQqSnE2KLARDV-190" value="" style="labelPosition=center;verticalLabelPosition=middle;align=center;html=1;shape=mxgraph.basic.shaded_button;dx=10;fillColor=#E6E6E6;strokeColor=none;" parent="Si6ZbvaaQqSnE2KLARDV-184" vertex="1">
          <mxGeometry x="20" y="110" width="130" height="60" as="geometry" />
        </mxCell>
        <mxCell id="Si6ZbvaaQqSnE2KLARDV-196" value="FLASH" style="labelPosition=center;verticalLabelPosition=middle;align=center;html=1;shape=mxgraph.basic.shaded_button;dx=10;fillColor=#E6E6E6;strokeColor=none;" parent="Si6ZbvaaQqSnE2KLARDV-184" vertex="1">
          <mxGeometry x="25" y="400" width="285" height="110" as="geometry" />
        </mxCell>
        <mxCell id="Si6ZbvaaQqSnE2KLARDV-204" value="" style="labelPosition=center;verticalLabelPosition=middle;align=center;html=1;shape=mxgraph.basic.shaded_button;dx=10;fillColor=#E6E6E6;strokeColor=none;" parent="Si6ZbvaaQqSnE2KLARDV-184" vertex="1">
          <mxGeometry x="20" y="250" width="130" height="60" as="geometry" />
        </mxCell>
        <mxCell id="Si6ZbvaaQqSnE2KLARDV-205" value="" style="labelPosition=center;verticalLabelPosition=middle;align=center;html=1;shape=mxgraph.basic.shaded_button;dx=10;fillColor=#E6E6E6;strokeColor=none;" parent="Si6ZbvaaQqSnE2KLARDV-184" vertex="1">
          <mxGeometry x="180" y="320" width="130" height="60" as="geometry" />
        </mxCell>
        <mxCell id="Si6ZbvaaQqSnE2KLARDV-208" value="" style="labelPosition=center;verticalLabelPosition=middle;align=center;html=1;shape=mxgraph.basic.shaded_button;dx=10;fillColor=#E6E6E6;strokeColor=none;" parent="Si6ZbvaaQqSnE2KLARDV-184" vertex="1">
          <mxGeometry x="180" y="250" width="130" height="60" as="geometry" />
        </mxCell>
        <mxCell id="Si6ZbvaaQqSnE2KLARDV-209" value="" style="labelPosition=center;verticalLabelPosition=middle;align=center;html=1;shape=mxgraph.basic.shaded_button;dx=10;fillColor=#E6E6E6;strokeColor=none;" parent="Si6ZbvaaQqSnE2KLARDV-184" vertex="1">
          <mxGeometry x="20" y="320" width="130" height="60" as="geometry" />
        </mxCell>
        <mxCell id="Si6ZbvaaQqSnE2KLARDV-211" value="All other" style="swimlane;" parent="1" vertex="1">
          <mxGeometry x="9" y="10" width="331" height="610" as="geometry" />
        </mxCell>
        <mxCell id="Si6ZbvaaQqSnE2KLARDV-220" value="FLASH" style="labelPosition=center;verticalLabelPosition=middle;align=center;html=1;shape=mxgraph.basic.shaded_button;dx=10;fillColor=#E6E6E6;strokeColor=none;" parent="Si6ZbvaaQqSnE2KLARDV-211" vertex="1">
          <mxGeometry x="25" y="400" width="285" height="110" as="geometry" />
        </mxCell>
        <mxCell id="Si6ZbvaaQqSnE2KLARDV-222" value="" style="labelPosition=center;verticalLabelPosition=middle;align=center;html=1;shape=mxgraph.basic.shaded_button;dx=10;fillColor=#E6E6E6;strokeColor=none;" parent="Si6ZbvaaQqSnE2KLARDV-211" vertex="1">
          <mxGeometry x="180" y="40" width="130" height="60" as="geometry" />
        </mxCell>
        <mxCell id="Si6ZbvaaQqSnE2KLARDV-224" value="" style="labelPosition=center;verticalLabelPosition=middle;align=center;html=1;shape=mxgraph.basic.shaded_button;dx=10;fillColor=#E6E6E6;strokeColor=none;" parent="Si6ZbvaaQqSnE2KLARDV-211" vertex="1">
          <mxGeometry x="20" y="40" width="130" height="60" as="geometry" />
        </mxCell>
        <mxCell id="Si6ZbvaaQqSnE2KLARDV-226" value="" style="labelPosition=center;verticalLabelPosition=middle;align=center;html=1;shape=mxgraph.basic.shaded_button;dx=10;fillColor=#E6E6E6;strokeColor=none;" parent="Si6ZbvaaQqSnE2KLARDV-211" vertex="1">
          <mxGeometry x="20" y="110" width="130" height="60" as="geometry" />
        </mxCell>
        <mxCell id="Si6ZbvaaQqSnE2KLARDV-227" value="" style="shape=image;html=1;verticalAlign=top;verticalLabelPosition=bottom;labelBackgroundColor=#ffffff;imageAspect=0;aspect=fixed;image=https://cdn3.iconfinder.com/data/icons/energy-and-power-glyph-24-px/24/Analog_device_gauge_gauge_meter_pressure_gauge_speedometer-128.png" parent="Si6ZbvaaQqSnE2KLARDV-211" vertex="1">
          <mxGeometry x="25.5" y="215" width="70" height="70" as="geometry" />
        </mxCell>
        <mxCell id="Si6ZbvaaQqSnE2KLARDV-228" value="" style="shape=image;html=1;verticalAlign=top;verticalLabelPosition=bottom;labelBackgroundColor=#ffffff;imageAspect=0;aspect=fixed;image=https://cdn3.iconfinder.com/data/icons/energy-and-power-glyph-24-px/24/Analog_device_gauge_gauge_meter_pressure_gauge_speedometer-128.png" parent="Si6ZbvaaQqSnE2KLARDV-211" vertex="1">
          <mxGeometry x="95.5" y="215" width="70" height="70" as="geometry" />
        </mxCell>
        <mxCell id="Si6ZbvaaQqSnE2KLARDV-230" value="" style="shape=image;html=1;verticalAlign=top;verticalLabelPosition=bottom;labelBackgroundColor=#ffffff;imageAspect=0;aspect=fixed;image=https://cdn3.iconfinder.com/data/icons/energy-and-power-glyph-24-px/24/Analog_device_gauge_gauge_meter_pressure_gauge_speedometer-128.png" parent="Si6ZbvaaQqSnE2KLARDV-211" vertex="1">
          <mxGeometry x="165.5" y="215" width="70" height="70" as="geometry" />
        </mxCell>
        <mxCell id="Si6ZbvaaQqSnE2KLARDV-229" value="" style="shape=image;html=1;verticalAlign=top;verticalLabelPosition=bottom;labelBackgroundColor=#ffffff;imageAspect=0;aspect=fixed;image=https://cdn3.iconfinder.com/data/icons/energy-and-power-glyph-24-px/24/Analog_device_gauge_gauge_meter_pressure_gauge_speedometer-128.png" parent="Si6ZbvaaQqSnE2KLARDV-211" vertex="1">
          <mxGeometry x="235.5" y="215" width="70" height="70" as="geometry" />
        </mxCell>
        <mxCell id="Si6ZbvaaQqSnE2KLARDV-231" value="" style="shape=image;html=1;verticalAlign=top;verticalLabelPosition=bottom;labelBackgroundColor=#ffffff;imageAspect=0;aspect=fixed;image=https://cdn3.iconfinder.com/data/icons/energy-and-power-glyph-24-px/24/Analog_device_gauge_gauge_meter_pressure_gauge_speedometer-128.png" parent="Si6ZbvaaQqSnE2KLARDV-211" vertex="1">
          <mxGeometry x="25.5" y="305" width="70" height="70" as="geometry" />
        </mxCell>
        <mxCell id="Si6ZbvaaQqSnE2KLARDV-232" value="" style="shape=image;html=1;verticalAlign=top;verticalLabelPosition=bottom;labelBackgroundColor=#ffffff;imageAspect=0;aspect=fixed;image=https://cdn3.iconfinder.com/data/icons/energy-and-power-glyph-24-px/24/Analog_device_gauge_gauge_meter_pressure_gauge_speedometer-128.png" parent="Si6ZbvaaQqSnE2KLARDV-211" vertex="1">
          <mxGeometry x="95.5" y="305" width="70" height="70" as="geometry" />
        </mxCell>
        <mxCell id="Si6ZbvaaQqSnE2KLARDV-233" value="" style="shape=image;html=1;verticalAlign=top;verticalLabelPosition=bottom;labelBackgroundColor=#ffffff;imageAspect=0;aspect=fixed;image=https://cdn3.iconfinder.com/data/icons/energy-and-power-glyph-24-px/24/Analog_device_gauge_gauge_meter_pressure_gauge_speedometer-128.png" parent="Si6ZbvaaQqSnE2KLARDV-211" vertex="1">
          <mxGeometry x="165.5" y="305" width="70" height="70" as="geometry" />
        </mxCell>
        <mxCell id="Si6ZbvaaQqSnE2KLARDV-234" value="" style="shape=image;html=1;verticalAlign=top;verticalLabelPosition=bottom;labelBackgroundColor=#ffffff;imageAspect=0;aspect=fixed;image=https://cdn3.iconfinder.com/data/icons/energy-and-power-glyph-24-px/24/Analog_device_gauge_gauge_meter_pressure_gauge_speedometer-128.png" parent="Si6ZbvaaQqSnE2KLARDV-211" vertex="1">
          <mxGeometry x="235.5" y="305" width="70" height="70" as="geometry" />
        </mxCell>
        <mxCell id="Si6ZbvaaQqSnE2KLARDV-235" value="Channel (map 0-10)" style="text;html=1;align=center;verticalAlign=middle;resizable=0;points=[];autosize=1;strokeColor=none;fillColor=none;" parent="Si6ZbvaaQqSnE2KLARDV-211" vertex="1">
          <mxGeometry x="100.5" y="200" width="130" height="30" as="geometry" />
        </mxCell>
        <mxCell id="Si6ZbvaaQqSnE2KLARDV-236" value="Channel (map 0-255)" style="text;html=1;align=center;verticalAlign=middle;resizable=0;points=[];autosize=1;strokeColor=none;fillColor=none;" parent="Si6ZbvaaQqSnE2KLARDV-211" vertex="1">
          <mxGeometry x="96" y="285" width="140" height="30" as="geometry" />
        </mxCell>
        <mxCell id="Si6ZbvaaQqSnE2KLARDV-237" value="Last altered channel state" style="shape=image;html=1;verticalAlign=top;verticalLabelPosition=bottom;labelBackgroundColor=#ffffff;imageAspect=0;aspect=fixed;image=https://cdn1.iconfinder.com/data/icons/100-basic-for-user-interface/32/29-Screen-128.png" parent="Si6ZbvaaQqSnE2KLARDV-211" vertex="1">
          <mxGeometry x="215" y="110" width="60" height="60" as="geometry" />
        </mxCell>
        <mxCell id="LFXs0zO8Hx01GmSGuNnJ-1" value="Colors" style="swimlane;" parent="1" vertex="1">
          <mxGeometry x="380" y="2040" width="740" height="510" as="geometry">
            <mxRectangle x="-810" y="-35" width="80" height="30" as="alternateBounds" />
          </mxGeometry>
        </mxCell>
        <mxCell id="LFXs0zO8Hx01GmSGuNnJ-52" value="Grün" style="labelPosition=center;verticalLabelPosition=middle;align=center;html=1;shape=mxgraph.basic.shaded_button;dx=10;fillColor=#E6E6E6;strokeColor=none;" parent="LFXs0zO8Hx01GmSGuNnJ-1" vertex="1">
          <mxGeometry x="130" y="60" width="80" height="80" as="geometry" />
        </mxCell>
        <mxCell id="LFXs0zO8Hx01GmSGuNnJ-53" value="Gelb" style="labelPosition=center;verticalLabelPosition=middle;align=center;html=1;shape=mxgraph.basic.shaded_button;dx=10;fillColor=#E6E6E6;strokeColor=none;" parent="LFXs0zO8Hx01GmSGuNnJ-1" vertex="1">
          <mxGeometry x="250" y="60" width="80" height="80" as="geometry" />
        </mxCell>
        <mxCell id="LFXs0zO8Hx01GmSGuNnJ-54" value="Orange" style="labelPosition=center;verticalLabelPosition=middle;align=center;html=1;shape=mxgraph.basic.shaded_button;dx=10;fillColor=#E6E6E6;strokeColor=none;" parent="LFXs0zO8Hx01GmSGuNnJ-1" vertex="1">
          <mxGeometry x="360" y="170" width="80" height="80" as="geometry" />
        </mxCell>
        <mxCell id="LFXs0zO8Hx01GmSGuNnJ-55" value="Rot" style="labelPosition=center;verticalLabelPosition=middle;align=center;html=1;shape=mxgraph.basic.shaded_button;dx=10;fillColor=#E6E6E6;strokeColor=none;" parent="LFXs0zO8Hx01GmSGuNnJ-1" vertex="1">
          <mxGeometry x="360" y="290" width="80" height="80" as="geometry" />
        </mxCell>
        <mxCell id="LFXs0zO8Hx01GmSGuNnJ-56" value="Türkis" style="labelPosition=center;verticalLabelPosition=middle;align=center;html=1;shape=mxgraph.basic.shaded_button;dx=10;fillColor=#E6E6E6;strokeColor=none;" parent="LFXs0zO8Hx01GmSGuNnJ-1" vertex="1">
          <mxGeometry x="20" y="170" width="80" height="80" as="geometry" />
        </mxCell>
        <mxCell id="LFXs0zO8Hx01GmSGuNnJ-57" value="Blau" style="labelPosition=center;verticalLabelPosition=middle;align=center;html=1;shape=mxgraph.basic.shaded_button;dx=10;fillColor=#E6E6E6;strokeColor=none;" parent="LFXs0zO8Hx01GmSGuNnJ-1" vertex="1">
          <mxGeometry x="20" y="290" width="80" height="80" as="geometry" />
        </mxCell>
        <mxCell id="LFXs0zO8Hx01GmSGuNnJ-58" value="Violett" style="labelPosition=center;verticalLabelPosition=middle;align=center;html=1;shape=mxgraph.basic.shaded_button;dx=10;fillColor=#E6E6E6;strokeColor=none;" parent="LFXs0zO8Hx01GmSGuNnJ-1" vertex="1">
          <mxGeometry x="130" y="400" width="80" height="80" as="geometry" />
        </mxCell>
        <mxCell id="LFXs0zO8Hx01GmSGuNnJ-59" value="Pink" style="labelPosition=center;verticalLabelPosition=middle;align=center;html=1;shape=mxgraph.basic.shaded_button;dx=10;fillColor=#E6E6E6;strokeColor=none;" parent="LFXs0zO8Hx01GmSGuNnJ-1" vertex="1">
          <mxGeometry x="250" y="400" width="80" height="80" as="geometry" />
        </mxCell>
        <mxCell id="LFXs0zO8Hx01GmSGuNnJ-65" value="White" style="labelPosition=center;verticalLabelPosition=middle;align=center;html=1;shape=mxgraph.basic.shaded_button;dx=10;fillColor=#E6E6E6;strokeColor=none;" parent="LFXs0zO8Hx01GmSGuNnJ-1" vertex="1">
          <mxGeometry x="370" y="40" width="80" height="80" as="geometry" />
        </mxCell>
        <mxCell id="LFXs0zO8Hx01GmSGuNnJ-66" value="Rainbow" style="labelPosition=center;verticalLabelPosition=middle;align=center;html=1;shape=mxgraph.basic.shaded_button;dx=10;fillColor=#E6E6E6;strokeColor=none;" parent="LFXs0zO8Hx01GmSGuNnJ-1" vertex="1">
          <mxGeometry x="490" y="40" width="80" height="80" as="geometry" />
        </mxCell>
        <mxCell id="LFXs0zO8Hx01GmSGuNnJ-67" value="" style="dashed=0;verticalLabelPosition=bottom;verticalAlign=top;align=center;shape=mxgraph.gmdl.slider2;barPos=40;strokeColor=#3F51B5;opacity=100;strokeWidth=2;fillColor=#3F51B5;handleSize=10;shadow=0;rotation=-90;" parent="LFXs0zO8Hx01GmSGuNnJ-1" vertex="1">
          <mxGeometry x="530" y="240" width="310" height="10" as="geometry" />
        </mxCell>
        <mxCell id="LFXs0zO8Hx01GmSGuNnJ-68" value="Übergang" style="text;html=1;align=center;verticalAlign=middle;resizable=0;points=[];autosize=1;strokeColor=none;fillColor=none;" parent="LFXs0zO8Hx01GmSGuNnJ-1" vertex="1">
          <mxGeometry x="645" y="50" width="80" height="30" as="geometry" />
        </mxCell>
        <mxCell id="LFXs0zO8Hx01GmSGuNnJ-95" value="Intelligent" style="labelPosition=center;verticalLabelPosition=middle;align=center;html=1;shape=mxgraph.basic.shaded_button;dx=10;fillColor=#E6E6E6;strokeColor=none;" parent="LFXs0zO8Hx01GmSGuNnJ-1" vertex="1">
          <mxGeometry x="645" y="420" width="80" height="80" as="geometry" />
        </mxCell>
        <mxCell id="L0GXj8PwuFrT2ReA4ehV-6" value="Farbtrio" style="labelPosition=center;verticalLabelPosition=middle;align=center;html=1;shape=mxgraph.basic.shaded_button;dx=10;fillColor=#E6E6E6;strokeColor=none;" parent="LFXs0zO8Hx01GmSGuNnJ-1" vertex="1">
          <mxGeometry x="460" y="420" width="80" height="80" as="geometry" />
        </mxCell>
        <mxCell id="LFXs0zO8Hx01GmSGuNnJ-34" value="Group" style="swimlane;" parent="1" vertex="1">
          <mxGeometry x="1130" y="1830" width="1140" height="720" as="geometry">
            <mxRectangle x="-810" y="-35" width="80" height="30" as="alternateBounds" />
          </mxGeometry>
        </mxCell>
        <mxCell id="tadGC4-IvMpw1Pa7mxWx-28" value="ALL" style="labelPosition=center;verticalLabelPosition=middle;align=center;html=1;shape=mxgraph.basic.shaded_button;dx=10;fillColor=#E6E6E6;strokeColor=none;" vertex="1" parent="LFXs0zO8Hx01GmSGuNnJ-34">
          <mxGeometry x="10" y="40" width="80" height="80" as="geometry" />
        </mxCell>
        <mxCell id="tadGC4-IvMpw1Pa7mxWx-44" value="UP / DOWN" style="labelPosition=center;verticalLabelPosition=middle;align=center;html=1;shape=mxgraph.basic.shaded_button;dx=10;fillColor=#E6E6E6;strokeColor=none;" vertex="1" parent="LFXs0zO8Hx01GmSGuNnJ-34">
          <mxGeometry x="10" y="130" width="80" height="80" as="geometry" />
        </mxCell>
        <mxCell id="tadGC4-IvMpw1Pa7mxWx-45" value="IN / Out" style="labelPosition=center;verticalLabelPosition=middle;align=center;html=1;shape=mxgraph.basic.shaded_button;dx=10;fillColor=#E6E6E6;strokeColor=none;" vertex="1" parent="LFXs0zO8Hx01GmSGuNnJ-34">
          <mxGeometry x="100" y="130" width="80" height="80" as="geometry" />
        </mxCell>
        <mxCell id="tadGC4-IvMpw1Pa7mxWx-46" value="Side / Side" style="labelPosition=center;verticalLabelPosition=middle;align=center;html=1;shape=mxgraph.basic.shaded_button;dx=10;fillColor=#E6E6E6;strokeColor=none;" vertex="1" parent="LFXs0zO8Hx01GmSGuNnJ-34">
          <mxGeometry x="100" y="40" width="80" height="80" as="geometry" />
        </mxCell>
        <mxCell id="tadGC4-IvMpw1Pa7mxWx-47" value="Random Scan" style="labelPosition=center;verticalLabelPosition=middle;align=center;html=1;shape=mxgraph.basic.shaded_button;dx=10;fillColor=#E6E6E6;strokeColor=none;" vertex="1" parent="LFXs0zO8Hx01GmSGuNnJ-34">
          <mxGeometry x="10" y="260" width="80" height="80" as="geometry" />
        </mxCell>
        <mxCell id="tadGC4-IvMpw1Pa7mxWx-48" value="Random LED" style="labelPosition=center;verticalLabelPosition=middle;align=center;html=1;shape=mxgraph.basic.shaded_button;dx=10;fillColor=#E6E6E6;strokeColor=none;" vertex="1" parent="LFXs0zO8Hx01GmSGuNnJ-34">
          <mxGeometry x="10" y="350" width="80" height="80" as="geometry" />
        </mxCell>
        <mxCell id="tadGC4-IvMpw1Pa7mxWx-64" value="Actor" style="shape=umlActor;verticalLabelPosition=bottom;verticalAlign=top;html=1;outlineConnect=0;" vertex="1" parent="LFXs0zO8Hx01GmSGuNnJ-34">
          <mxGeometry x="400" y="220" width="40" height="80" as="geometry" />
        </mxCell>
        <mxCell id="tadGC4-IvMpw1Pa7mxWx-69" value="" style="ellipse;whiteSpace=wrap;html=1;aspect=fixed;" vertex="1" parent="LFXs0zO8Hx01GmSGuNnJ-34">
          <mxGeometry x="230" y="40" width="30" height="30" as="geometry" />
        </mxCell>
        <mxCell id="tadGC4-IvMpw1Pa7mxWx-70" value="" style="ellipse;whiteSpace=wrap;html=1;aspect=fixed;" vertex="1" parent="LFXs0zO8Hx01GmSGuNnJ-34">
          <mxGeometry x="300" y="40" width="30" height="30" as="geometry" />
        </mxCell>
        <mxCell id="tadGC4-IvMpw1Pa7mxWx-71" value="" style="ellipse;whiteSpace=wrap;html=1;aspect=fixed;" vertex="1" parent="LFXs0zO8Hx01GmSGuNnJ-34">
          <mxGeometry x="370" y="40" width="30" height="30" as="geometry" />
        </mxCell>
        <mxCell id="tadGC4-IvMpw1Pa7mxWx-72" value="" style="ellipse;whiteSpace=wrap;html=1;aspect=fixed;fillColor=#ffe6cc;strokeColor=#d79b00;" vertex="1" parent="LFXs0zO8Hx01GmSGuNnJ-34">
          <mxGeometry x="440" y="40" width="30" height="30" as="geometry" />
        </mxCell>
        <mxCell id="tadGC4-IvMpw1Pa7mxWx-73" value="" style="ellipse;whiteSpace=wrap;html=1;aspect=fixed;fillColor=#ffe6cc;strokeColor=#d79b00;" vertex="1" parent="LFXs0zO8Hx01GmSGuNnJ-34">
          <mxGeometry x="510" y="40" width="30" height="30" as="geometry" />
        </mxCell>
        <mxCell id="tadGC4-IvMpw1Pa7mxWx-74" value="" style="ellipse;whiteSpace=wrap;html=1;aspect=fixed;fillColor=#ffe6cc;strokeColor=#d79b00;" vertex="1" parent="LFXs0zO8Hx01GmSGuNnJ-34">
          <mxGeometry x="580" y="40" width="30" height="30" as="geometry" />
        </mxCell>
        <mxCell id="tadGC4-IvMpw1Pa7mxWx-76" value="" style="ellipse;whiteSpace=wrap;html=1;fillColor=#f8cecc;strokeColor=#b85450;" vertex="1" parent="LFXs0zO8Hx01GmSGuNnJ-34">
          <mxGeometry x="230" y="120" width="20" height="40" as="geometry" />
        </mxCell>
        <mxCell id="tadGC4-IvMpw1Pa7mxWx-77" value="" style="ellipse;whiteSpace=wrap;html=1;fillColor=#dae8fc;strokeColor=#6c8ebf;" vertex="1" parent="LFXs0zO8Hx01GmSGuNnJ-34">
          <mxGeometry x="310" y="120" width="20" height="40" as="geometry" />
        </mxCell>
        <mxCell id="tadGC4-IvMpw1Pa7mxWx-78" value="" style="ellipse;whiteSpace=wrap;html=1;fillColor=#d5e8d4;strokeColor=#82b366;" vertex="1" parent="LFXs0zO8Hx01GmSGuNnJ-34">
          <mxGeometry x="410" y="120" width="20" height="40" as="geometry" />
        </mxCell>
        <mxCell id="tadGC4-IvMpw1Pa7mxWx-79" value="" style="ellipse;whiteSpace=wrap;html=1;fillColor=#fff2cc;strokeColor=#d6b656;" vertex="1" parent="LFXs0zO8Hx01GmSGuNnJ-34">
          <mxGeometry x="510" y="120" width="20" height="40" as="geometry" />
        </mxCell>
        <mxCell id="tadGC4-IvMpw1Pa7mxWx-80" value="" style="ellipse;whiteSpace=wrap;html=1;fillColor=#e1d5e7;strokeColor=#9673a6;" vertex="1" parent="LFXs0zO8Hx01GmSGuNnJ-34">
          <mxGeometry x="590" y="120" width="20" height="40" as="geometry" />
        </mxCell>
        <mxCell id="tadGC4-IvMpw1Pa7mxWx-82" value="" style="triangle;whiteSpace=wrap;html=1;rotation=-90;fillColor=#ffe6cc;strokeColor=#d79b00;" vertex="1" parent="LFXs0zO8Hx01GmSGuNnJ-34">
          <mxGeometry x="520" y="60" width="20" height="80" as="geometry" />
        </mxCell>
        <mxCell id="tadGC4-IvMpw1Pa7mxWx-83" value="" style="triangle;whiteSpace=wrap;html=1;rotation=-90;" vertex="1" parent="LFXs0zO8Hx01GmSGuNnJ-34">
          <mxGeometry x="310" y="60" width="20" height="80" as="geometry" />
        </mxCell>
        <mxCell id="tadGC4-IvMpw1Pa7mxWx-86" value="" style="rounded=0;whiteSpace=wrap;html=1;" vertex="1" parent="LFXs0zO8Hx01GmSGuNnJ-34">
          <mxGeometry x="270" y="140" width="10" height="190" as="geometry" />
        </mxCell>
        <mxCell id="tadGC4-IvMpw1Pa7mxWx-87" value="" style="rounded=0;whiteSpace=wrap;html=1;" vertex="1" parent="LFXs0zO8Hx01GmSGuNnJ-34">
          <mxGeometry x="350" y="140" width="10" height="190" as="geometry" />
        </mxCell>
        <mxCell id="tadGC4-IvMpw1Pa7mxWx-88" value="" style="rounded=0;whiteSpace=wrap;html=1;fillColor=#ffe6cc;strokeColor=#d79b00;" vertex="1" parent="LFXs0zO8Hx01GmSGuNnJ-34">
          <mxGeometry x="480" y="140" width="10" height="190" as="geometry" />
        </mxCell>
        <mxCell id="tadGC4-IvMpw1Pa7mxWx-89" value="" style="rounded=0;whiteSpace=wrap;html=1;fillColor=#ffe6cc;strokeColor=#d79b00;" vertex="1" parent="LFXs0zO8Hx01GmSGuNnJ-34">
          <mxGeometry x="560" y="140" width="10" height="190" as="geometry" />
        </mxCell>
        <mxCell id="tadGC4-IvMpw1Pa7mxWx-90" value="" style="labelPosition=center;verticalLabelPosition=middle;align=center;html=1;shape=mxgraph.basic.shaded_button;dx=10;" vertex="1" parent="LFXs0zO8Hx01GmSGuNnJ-34">
          <mxGeometry x="210" y="360" width="80" height="80" as="geometry" />
        </mxCell>
        <mxCell id="tadGC4-IvMpw1Pa7mxWx-91" value="" style="labelPosition=center;verticalLabelPosition=middle;align=center;html=1;shape=mxgraph.basic.shaded_button;dx=10;fillColor=#ffe6cc;strokeColor=#d79b00;" vertex="1" parent="LFXs0zO8Hx01GmSGuNnJ-34">
          <mxGeometry x="300" y="360" width="80" height="80" as="geometry" />
        </mxCell>
        <mxCell id="tadGC4-IvMpw1Pa7mxWx-95" value="Random Wash" style="labelPosition=center;verticalLabelPosition=middle;align=center;html=1;shape=mxgraph.basic.shaded_button;dx=10;fillColor=#E6E6E6;strokeColor=none;" vertex="1" parent="LFXs0zO8Hx01GmSGuNnJ-34">
          <mxGeometry x="100" y="260" width="80" height="80" as="geometry" />
        </mxCell>
        <mxCell id="tadGC4-IvMpw1Pa7mxWx-96" value="Random Pece" style="labelPosition=center;verticalLabelPosition=middle;align=center;html=1;shape=mxgraph.basic.shaded_button;dx=10;fillColor=#E6E6E6;strokeColor=none;" vertex="1" parent="LFXs0zO8Hx01GmSGuNnJ-34">
          <mxGeometry x="100" y="350" width="80" height="80" as="geometry" />
        </mxCell>
        <mxCell id="tadGC4-IvMpw1Pa7mxWx-49" value="" style="labelPosition=center;verticalLabelPosition=middle;align=center;html=1;shape=mxgraph.basic.shaded_button;dx=10;fillColor=#f8cecc;strokeColor=#b85450;" vertex="1" parent="LFXs0zO8Hx01GmSGuNnJ-34">
          <mxGeometry x="210" y="540" width="80" height="80" as="geometry" />
        </mxCell>
        <mxCell id="tadGC4-IvMpw1Pa7mxWx-50" value="" style="labelPosition=center;verticalLabelPosition=middle;align=center;html=1;shape=mxgraph.basic.shaded_button;dx=10;fillColor=#dae8fc;strokeColor=#6c8ebf;" vertex="1" parent="LFXs0zO8Hx01GmSGuNnJ-34">
          <mxGeometry x="300" y="540" width="80" height="80" as="geometry" />
        </mxCell>
        <mxCell id="tadGC4-IvMpw1Pa7mxWx-52" value="" style="labelPosition=center;verticalLabelPosition=middle;align=center;html=1;shape=mxgraph.basic.shaded_button;dx=10;fillColor=#fff2cc;strokeColor=#d6b656;" vertex="1" parent="LFXs0zO8Hx01GmSGuNnJ-34">
          <mxGeometry x="480" y="540" width="80" height="80" as="geometry" />
        </mxCell>
        <mxCell id="tadGC4-IvMpw1Pa7mxWx-84" value="" style="labelPosition=center;verticalLabelPosition=middle;align=center;html=1;shape=mxgraph.basic.shaded_button;dx=10;fillColor=#d5e8d4;strokeColor=#82b366;" vertex="1" parent="LFXs0zO8Hx01GmSGuNnJ-34">
          <mxGeometry x="390" y="540" width="80" height="80" as="geometry" />
        </mxCell>
        <mxCell id="tadGC4-IvMpw1Pa7mxWx-85" value="" style="labelPosition=center;verticalLabelPosition=middle;align=center;html=1;shape=mxgraph.basic.shaded_button;dx=10;fillColor=#e1d5e7;strokeColor=#9673a6;" vertex="1" parent="LFXs0zO8Hx01GmSGuNnJ-34">
          <mxGeometry x="570" y="540" width="80" height="80" as="geometry" />
        </mxCell>
        <mxCell id="tadGC4-IvMpw1Pa7mxWx-97" value="Lights ON" style="labelPosition=center;verticalLabelPosition=middle;align=center;html=1;shape=mxgraph.basic.shaded_button;dx=10;fillColor=#E6E6E6;strokeColor=none;" vertex="1" parent="LFXs0zO8Hx01GmSGuNnJ-34">
          <mxGeometry x="10" y="450" width="170" height="80" as="geometry" />
        </mxCell>
        <mxCell id="tadGC4-IvMpw1Pa7mxWx-100" value="" style="dashed=0;verticalLabelPosition=bottom;verticalAlign=top;align=center;shape=mxgraph.gmdl.slider2;barPos=40;strokeColor=#3F51B5;opacity=100;strokeWidth=2;fillColor=#3F51B5;handleSize=10;shadow=0;rotation=-90;" vertex="1" parent="LFXs0zO8Hx01GmSGuNnJ-34">
          <mxGeometry x="570" y="230" width="310" height="10" as="geometry" />
        </mxCell>
        <mxCell id="tadGC4-IvMpw1Pa7mxWx-101" value="Einfaden" style="text;html=1;align=center;verticalAlign=middle;resizable=0;points=[];autosize=1;strokeColor=none;fillColor=none;" vertex="1" parent="LFXs0zO8Hx01GmSGuNnJ-34">
          <mxGeometry x="690" y="40" width="70" height="30" as="geometry" />
        </mxCell>
        <mxCell id="tadGC4-IvMpw1Pa7mxWx-102" value="Beat" style="labelPosition=center;verticalLabelPosition=middle;align=center;html=1;shape=mxgraph.basic.shaded_button;dx=10;fillColor=#E6E6E6;strokeColor=none;" vertex="1" parent="LFXs0zO8Hx01GmSGuNnJ-34">
          <mxGeometry x="10" y="540" width="170" height="80" as="geometry" />
        </mxCell>
        <mxCell id="tadGC4-IvMpw1Pa7mxWx-111" value="" style="labelPosition=center;verticalLabelPosition=middle;align=center;html=1;shape=mxgraph.basic.shaded_button;dx=10;" vertex="1" parent="LFXs0zO8Hx01GmSGuNnJ-34">
          <mxGeometry x="210" y="450" width="80" height="80" as="geometry" />
        </mxCell>
        <mxCell id="tadGC4-IvMpw1Pa7mxWx-112" value="" style="labelPosition=center;verticalLabelPosition=middle;align=center;html=1;shape=mxgraph.basic.shaded_button;dx=10;fillColor=#ffe6cc;strokeColor=#d79b00;" vertex="1" parent="LFXs0zO8Hx01GmSGuNnJ-34">
          <mxGeometry x="300" y="450" width="80" height="80" as="geometry" />
        </mxCell>
        <mxCell id="tadGC4-IvMpw1Pa7mxWx-113" value="" style="labelPosition=center;verticalLabelPosition=middle;align=center;html=1;shape=mxgraph.basic.shaded_button;dx=10;fillColor=#f8cecc;strokeColor=#b85450;" vertex="1" parent="LFXs0zO8Hx01GmSGuNnJ-34">
          <mxGeometry x="210" y="630" width="80" height="80" as="geometry" />
        </mxCell>
        <mxCell id="tadGC4-IvMpw1Pa7mxWx-114" value="" style="labelPosition=center;verticalLabelPosition=middle;align=center;html=1;shape=mxgraph.basic.shaded_button;dx=10;fillColor=#dae8fc;strokeColor=#6c8ebf;" vertex="1" parent="LFXs0zO8Hx01GmSGuNnJ-34">
          <mxGeometry x="300" y="630" width="80" height="80" as="geometry" />
        </mxCell>
        <mxCell id="tadGC4-IvMpw1Pa7mxWx-115" value="" style="labelPosition=center;verticalLabelPosition=middle;align=center;html=1;shape=mxgraph.basic.shaded_button;dx=10;fillColor=#fff2cc;strokeColor=#d6b656;" vertex="1" parent="LFXs0zO8Hx01GmSGuNnJ-34">
          <mxGeometry x="480" y="630" width="80" height="80" as="geometry" />
        </mxCell>
        <mxCell id="tadGC4-IvMpw1Pa7mxWx-116" value="" style="labelPosition=center;verticalLabelPosition=middle;align=center;html=1;shape=mxgraph.basic.shaded_button;dx=10;fillColor=#d5e8d4;strokeColor=#82b366;" vertex="1" parent="LFXs0zO8Hx01GmSGuNnJ-34">
          <mxGeometry x="390" y="630" width="80" height="80" as="geometry" />
        </mxCell>
        <mxCell id="tadGC4-IvMpw1Pa7mxWx-117" value="" style="labelPosition=center;verticalLabelPosition=middle;align=center;html=1;shape=mxgraph.basic.shaded_button;dx=10;fillColor=#e1d5e7;strokeColor=#9673a6;" vertex="1" parent="LFXs0zO8Hx01GmSGuNnJ-34">
          <mxGeometry x="570" y="630" width="80" height="80" as="geometry" />
        </mxCell>
        <mxCell id="tadGC4-IvMpw1Pa7mxWx-133" value="" style="dashed=0;verticalLabelPosition=bottom;verticalAlign=top;align=center;shape=mxgraph.gmdl.slider2;barPos=40;strokeColor=#3F51B5;opacity=100;strokeWidth=2;fillColor=#3F51B5;handleSize=10;shadow=0;rotation=-90;" vertex="1" parent="LFXs0zO8Hx01GmSGuNnJ-34">
          <mxGeometry x="650" y="230" width="310" height="10" as="geometry" />
        </mxCell>
        <mxCell id="tadGC4-IvMpw1Pa7mxWx-134" value="Ausfaden" style="text;html=1;align=center;verticalAlign=middle;resizable=0;points=[];autosize=1;strokeColor=none;fillColor=none;" vertex="1" parent="LFXs0zO8Hx01GmSGuNnJ-34">
          <mxGeometry x="770" y="40" width="70" height="30" as="geometry" />
        </mxCell>
        <mxCell id="LFXs0zO8Hx01GmSGuNnJ-35" value="Master Animations" style="swimlane;" parent="1" vertex="1">
          <mxGeometry x="2285" y="1990" width="410" height="560" as="geometry">
            <mxRectangle x="-810" y="-35" width="80" height="30" as="alternateBounds" />
          </mxGeometry>
        </mxCell>
        <mxCell id="tadGC4-IvMpw1Pa7mxWx-123" value="Random Strobe&lt;span style=&quot;color: rgba(0, 0, 0, 0); font-family: monospace; font-size: 0px; text-align: start;&quot;&gt;%3CmxGraphModel%3E%3Croot%3E%3CmxCell%20id%3D%220%22%2F%3E%3CmxCell%20id%3D%221%22%20parent%3D%220%22%2F%3E%3CmxCell%20id%3D%222%22%20value%3D%22Random%20Pece%22%20style%3D%22labelPosition%3Dcenter%3BverticalLabelPosition%3Dmiddle%3Balign%3Dcenter%3Bhtml%3D1%3Bshape%3Dmxgraph.basic.shaded_button%3Bdx%3D10%3BfillColor%3D%23E6E6E6%3BstrokeColor%3Dnone%3B%22%20vertex%3D%221%22%20parent%3D%221%22%3E%3CmxGeometry%20x%3D%221230%22%20y%3D%222180%22%20width%3D%2280%22%20height%3D%2280%22%20as%3D%22geometry%22%2F%3E%3C%2FmxCell%3E%3C%2Froot%3E%3C%2FmxGraphModel%3E&lt;/span&gt;" style="labelPosition=center;verticalLabelPosition=middle;align=center;html=1;shape=mxgraph.basic.shaded_button;dx=10;fillColor=#E6E6E6;strokeColor=none;" vertex="1" parent="LFXs0zO8Hx01GmSGuNnJ-35">
          <mxGeometry x="10" y="40" width="80" height="80" as="geometry" />
        </mxCell>
        <mxCell id="tadGC4-IvMpw1Pa7mxWx-124" value="Sync Strobe" style="labelPosition=center;verticalLabelPosition=middle;align=center;html=1;shape=mxgraph.basic.shaded_button;dx=10;fillColor=#E6E6E6;strokeColor=none;" vertex="1" parent="LFXs0zO8Hx01GmSGuNnJ-35">
          <mxGeometry x="10" y="130" width="80" height="80" as="geometry" />
        </mxCell>
        <mxCell id="tadGC4-IvMpw1Pa7mxWx-125" value="" style="dashed=0;verticalLabelPosition=bottom;verticalAlign=top;align=center;shape=mxgraph.gmdl.slider2;barPos=40;strokeColor=#3F51B5;opacity=100;strokeWidth=2;fillColor=#3F51B5;handleSize=10;shadow=0;rotation=-90;" vertex="1" parent="LFXs0zO8Hx01GmSGuNnJ-35">
          <mxGeometry x="-105" y="380" width="310" height="10" as="geometry" />
        </mxCell>
        <mxCell id="LFXs0zO8Hx01GmSGuNnJ-37" value="Master" style="swimlane;" parent="1" vertex="1">
          <mxGeometry x="2705" y="2160" width="1105" height="390" as="geometry">
            <mxRectangle x="-810" y="-35" width="80" height="30" as="alternateBounds" />
          </mxGeometry>
        </mxCell>
        <mxCell id="tadGC4-IvMpw1Pa7mxWx-1" value="ACCESS KEY" style="points=[[0,0.5,0],[0.24,0,0],[0.5,0.28,0],[0.995,0.475,0],[0.5,0.72,0],[0.24,1,0]];verticalLabelPosition=bottom;sketch=0;html=1;verticalAlign=top;aspect=fixed;align=center;pointerEvents=1;shape=mxgraph.cisco19.key;fillColor=#005073;strokeColor=none;fontSize=12;" vertex="1" parent="LFXs0zO8Hx01GmSGuNnJ-37">
          <mxGeometry x="11.670000000000002" y="30" width="133.33" height="60" as="geometry" />
        </mxCell>
        <mxCell id="tadGC4-IvMpw1Pa7mxWx-2" value="&lt;div&gt;&lt;font style=&quot;font-size: 27px;&quot;&gt;Modus&lt;/font&gt;&lt;/div&gt;" style="shape=image;html=1;verticalAlign=top;verticalLabelPosition=bottom;labelBackgroundColor=#ffffff;imageAspect=0;aspect=fixed;image=https://cdn3.iconfinder.com/data/icons/energy-and-power-glyph-24-px/24/Analog_device_gauge_gauge_meter_pressure_gauge_speedometer-128.png" vertex="1" parent="LFXs0zO8Hx01GmSGuNnJ-37">
          <mxGeometry x="255" y="60" width="100" height="100" as="geometry" />
        </mxCell>
        <mxCell id="tadGC4-IvMpw1Pa7mxWx-3" value="MANUAL" style="text;html=1;align=center;verticalAlign=middle;resizable=0;points=[];autosize=1;strokeColor=none;fillColor=none;fontSize=12;" vertex="1" parent="LFXs0zO8Hx01GmSGuNnJ-37">
          <mxGeometry x="185" y="120" width="70" height="30" as="geometry" />
        </mxCell>
        <mxCell id="tadGC4-IvMpw1Pa7mxWx-4" value="&lt;div&gt;AUTO&lt;/div&gt;&lt;div&gt;PARTY&lt;br&gt;&lt;/div&gt;" style="text;html=1;align=center;verticalAlign=middle;resizable=0;points=[];autosize=1;strokeColor=none;fillColor=none;fontSize=12;" vertex="1" parent="LFXs0zO8Hx01GmSGuNnJ-37">
          <mxGeometry x="215" y="40" width="60" height="40" as="geometry" />
        </mxCell>
        <mxCell id="tadGC4-IvMpw1Pa7mxWx-5" value="&lt;div&gt;AUTO&lt;/div&gt;&lt;div&gt;CALM&lt;br&gt;&lt;/div&gt;" style="text;html=1;align=center;verticalAlign=middle;resizable=0;points=[];autosize=1;strokeColor=none;fillColor=none;fontSize=12;" vertex="1" parent="LFXs0zO8Hx01GmSGuNnJ-37">
          <mxGeometry x="335" y="40" width="60" height="40" as="geometry" />
        </mxCell>
        <mxCell id="tadGC4-IvMpw1Pa7mxWx-6" value="LOCK / OFF" style="text;html=1;align=center;verticalAlign=middle;resizable=0;points=[];autosize=1;strokeColor=none;fillColor=none;fontSize=12;" vertex="1" parent="LFXs0zO8Hx01GmSGuNnJ-37">
          <mxGeometry x="345" y="120" width="90" height="30" as="geometry" />
        </mxCell>
        <mxCell id="tadGC4-IvMpw1Pa7mxWx-7" value="&lt;span style=&quot;font-size: 27px;&quot;&gt;Spotlight&lt;/span&gt;" style="shape=image;html=1;verticalAlign=top;verticalLabelPosition=bottom;labelBackgroundColor=#ffffff;imageAspect=0;aspect=fixed;image=https://cdn3.iconfinder.com/data/icons/energy-and-power-glyph-24-px/24/Analog_device_gauge_gauge_meter_pressure_gauge_speedometer-128.png" vertex="1" parent="LFXs0zO8Hx01GmSGuNnJ-37">
          <mxGeometry x="475" y="60" width="100" height="100" as="geometry" />
        </mxCell>
        <mxCell id="tadGC4-IvMpw1Pa7mxWx-8" value="&lt;div&gt;&lt;font style=&quot;font-size: 27px;&quot;&gt;Scanner&lt;/font&gt;&lt;/div&gt;" style="shape=image;html=1;verticalAlign=top;verticalLabelPosition=bottom;labelBackgroundColor=#ffffff;imageAspect=0;aspect=fixed;image=https://cdn3.iconfinder.com/data/icons/energy-and-power-glyph-24-px/24/Analog_device_gauge_gauge_meter_pressure_gauge_speedometer-128.png" vertex="1" parent="LFXs0zO8Hx01GmSGuNnJ-37">
          <mxGeometry x="605" y="60" width="100" height="100" as="geometry" />
        </mxCell>
        <mxCell id="tadGC4-IvMpw1Pa7mxWx-9" value="&lt;div&gt;&lt;font style=&quot;font-size: 27px;&quot;&gt;Par Lights&lt;/font&gt;&lt;/div&gt;" style="shape=image;html=1;verticalAlign=top;verticalLabelPosition=bottom;labelBackgroundColor=#ffffff;imageAspect=0;aspect=fixed;image=https://cdn3.iconfinder.com/data/icons/energy-and-power-glyph-24-px/24/Analog_device_gauge_gauge_meter_pressure_gauge_speedometer-128.png" vertex="1" parent="LFXs0zO8Hx01GmSGuNnJ-37">
          <mxGeometry x="725" y="60" width="100" height="100" as="geometry" />
        </mxCell>
        <mxCell id="tadGC4-IvMpw1Pa7mxWx-10" value="&lt;div&gt;&lt;font style=&quot;font-size: 27px;&quot;&gt;LED`s&lt;/font&gt;&lt;/div&gt;" style="shape=image;html=1;verticalAlign=top;verticalLabelPosition=bottom;labelBackgroundColor=#ffffff;imageAspect=0;aspect=fixed;image=https://cdn3.iconfinder.com/data/icons/energy-and-power-glyph-24-px/24/Analog_device_gauge_gauge_meter_pressure_gauge_speedometer-128.png" vertex="1" parent="LFXs0zO8Hx01GmSGuNnJ-37">
          <mxGeometry x="845" y="60" width="100" height="100" as="geometry" />
        </mxCell>
        <mxCell id="tadGC4-IvMpw1Pa7mxWx-13" value="&lt;div&gt;(Toggle)&lt;/div&gt;&lt;div&gt;Activate remote controll&lt;br&gt;&lt;/div&gt;" style="labelPosition=center;verticalLabelPosition=middle;align=center;html=1;shape=mxgraph.basic.shaded_button;dx=10;fillColor=#E6E6E6;strokeColor=none;" vertex="1" parent="LFXs0zO8Hx01GmSGuNnJ-37">
          <mxGeometry x="20" y="210" width="165" height="80" as="geometry" />
        </mxCell>
        <mxCell id="tadGC4-IvMpw1Pa7mxWx-14" value="&lt;div&gt;(Toggle)&lt;/div&gt;&lt;div&gt;Activate special devices&lt;/div&gt;&lt;div&gt;(Gloves, Eggs, ...)&lt;br&gt;&lt;/div&gt;" style="labelPosition=center;verticalLabelPosition=middle;align=center;html=1;shape=mxgraph.basic.shaded_button;dx=10;fillColor=#E6E6E6;strokeColor=none;" vertex="1" parent="LFXs0zO8Hx01GmSGuNnJ-37">
          <mxGeometry x="200" y="210" width="165" height="80" as="geometry" />
        </mxCell>
        <mxCell id="tadGC4-IvMpw1Pa7mxWx-15" value="&lt;div&gt;(Toggle)&lt;/div&gt;&lt;div&gt;Activate Laser&lt;/div&gt;&lt;div&gt;(Turns off if Key is unplugged)&lt;br&gt;&lt;/div&gt;" style="labelPosition=center;verticalLabelPosition=middle;align=center;html=1;shape=mxgraph.basic.shaded_button;dx=10;fillColor=#E6E6E6;strokeColor=none;" vertex="1" parent="LFXs0zO8Hx01GmSGuNnJ-37">
          <mxGeometry x="560" y="210" width="165" height="80" as="geometry" />
        </mxCell>
        <mxCell id="tadGC4-IvMpw1Pa7mxWx-16" value="&lt;div&gt;(Toggle)&lt;/div&gt;&lt;div&gt;Activate Strobe&lt;br&gt;&lt;/div&gt;" style="labelPosition=center;verticalLabelPosition=middle;align=center;html=1;shape=mxgraph.basic.shaded_button;dx=10;fillColor=#E6E6E6;strokeColor=none;" vertex="1" parent="LFXs0zO8Hx01GmSGuNnJ-37">
          <mxGeometry x="20" y="300" width="165" height="80" as="geometry" />
        </mxCell>
        <mxCell id="tadGC4-IvMpw1Pa7mxWx-17" value="&lt;div&gt;(Toggle)&lt;/div&gt;&lt;div&gt;Activate Fogmachine&lt;br&gt;&lt;/div&gt;" style="labelPosition=center;verticalLabelPosition=middle;align=center;html=1;shape=mxgraph.basic.shaded_button;dx=10;fillColor=#E6E6E6;strokeColor=none;" vertex="1" parent="LFXs0zO8Hx01GmSGuNnJ-37">
          <mxGeometry x="200" y="300" width="165" height="80" as="geometry" />
        </mxCell>
        <mxCell id="tadGC4-IvMpw1Pa7mxWx-18" value="&lt;div&gt;RESET KEYBOAD&lt;/div&gt;&lt;div&gt;(Arduino)&lt;br&gt;&lt;/div&gt;" style="labelPosition=center;verticalLabelPosition=middle;align=center;html=1;shape=mxgraph.basic.shaded_button;dx=10;fillColor=#E6E6E6;strokeColor=none;" vertex="1" parent="LFXs0zO8Hx01GmSGuNnJ-37">
          <mxGeometry x="380" y="300" width="165" height="80" as="geometry" />
        </mxCell>
        <mxCell id="tadGC4-IvMpw1Pa7mxWx-19" value="RESET RPI PROGRAM" style="labelPosition=center;verticalLabelPosition=middle;align=center;html=1;shape=mxgraph.basic.shaded_button;dx=10;fillColor=#E6E6E6;strokeColor=none;" vertex="1" parent="LFXs0zO8Hx01GmSGuNnJ-37">
          <mxGeometry x="560" y="300" width="165" height="80" as="geometry" />
        </mxCell>
        <mxCell id="tadGC4-IvMpw1Pa7mxWx-21" value="REBOOT RPI" style="labelPosition=center;verticalLabelPosition=middle;align=center;html=1;shape=mxgraph.basic.shaded_button;dx=10;fillColor=#E6E6E6;strokeColor=none;" vertex="1" parent="LFXs0zO8Hx01GmSGuNnJ-37">
          <mxGeometry x="920" y="210" width="165" height="80" as="geometry" />
        </mxCell>
        <mxCell id="tadGC4-IvMpw1Pa7mxWx-22" value="&lt;div&gt;PHYSICAL CUT&lt;/div&gt;&lt;div&gt;LED OUTPUT&lt;br&gt;&lt;/div&gt;" style="labelPosition=center;verticalLabelPosition=middle;align=center;html=1;shape=mxgraph.basic.shaded_button;dx=10;fillColor=#E6E6E6;strokeColor=none;" vertex="1" parent="LFXs0zO8Hx01GmSGuNnJ-37">
          <mxGeometry x="740" y="300" width="165" height="80" as="geometry" />
        </mxCell>
        <mxCell id="tadGC4-IvMpw1Pa7mxWx-23" value="&lt;div&gt;PHYSICAL CUT&lt;/div&gt;&lt;div&gt;DMX OUTPUT&lt;br&gt;&lt;/div&gt;" style="labelPosition=center;verticalLabelPosition=middle;align=center;html=1;shape=mxgraph.basic.shaded_button;dx=10;fillColor=#E6E6E6;strokeColor=none;" vertex="1" parent="LFXs0zO8Hx01GmSGuNnJ-37">
          <mxGeometry x="920" y="300" width="165" height="80" as="geometry" />
        </mxCell>
        <mxCell id="tadGC4-IvMpw1Pa7mxWx-24" value="&lt;div&gt;(Toggle)&lt;/div&gt;&lt;div&gt;Glove mode&lt;/div&gt;&lt;div&gt;(Sensors are more sensitive&lt;/div&gt;&lt;div&gt;to be able to operate keyboard&lt;/div&gt;&lt;div&gt;outside in the cold)&lt;br&gt;&lt;/div&gt;" style="labelPosition=center;verticalLabelPosition=middle;align=center;html=1;shape=mxgraph.basic.shaded_button;dx=10;fillColor=#E6E6E6;strokeColor=none;" vertex="1" parent="LFXs0zO8Hx01GmSGuNnJ-37">
          <mxGeometry x="380" y="210" width="165" height="80" as="geometry" />
        </mxCell>
        <mxCell id="tadGC4-IvMpw1Pa7mxWx-27" value="Dimmer" style="text;html=1;strokeColor=none;fillColor=none;align=center;verticalAlign=middle;whiteSpace=wrap;rounded=0;" vertex="1" parent="LFXs0zO8Hx01GmSGuNnJ-37">
          <mxGeometry x="665" y="30" width="60" height="30" as="geometry" />
        </mxCell>
        <mxCell id="LFXs0zO8Hx01GmSGuNnJ-40" value="Scanner" style="swimlane;" parent="1" vertex="1">
          <mxGeometry x="380" y="2570" width="740" height="670" as="geometry">
            <mxRectangle x="-810" y="-35" width="80" height="30" as="alternateBounds" />
          </mxGeometry>
        </mxCell>
        <mxCell id="tadGC4-IvMpw1Pa7mxWx-108" value="Flash" style="labelPosition=center;verticalLabelPosition=middle;align=center;html=1;shape=mxgraph.basic.shaded_button;dx=10;fillColor=#E6E6E6;strokeColor=none;" vertex="1" parent="LFXs0zO8Hx01GmSGuNnJ-40">
          <mxGeometry x="350" y="40" width="80" height="80" as="geometry" />
        </mxCell>
        <mxCell id="tadGC4-IvMpw1Pa7mxWx-110" value="Master" style="swimlane;" vertex="1" parent="LFXs0zO8Hx01GmSGuNnJ-40">
          <mxGeometry x="440" y="40" width="280" height="130" as="geometry">
            <mxRectangle x="-810" y="-35" width="80" height="30" as="alternateBounds" />
          </mxGeometry>
        </mxCell>
        <mxCell id="tadGC4-IvMpw1Pa7mxWx-109" value="ON / OFF" style="labelPosition=center;verticalLabelPosition=middle;align=center;html=1;shape=mxgraph.basic.shaded_button;dx=10;fillColor=#E6E6E6;strokeColor=none;" vertex="1" parent="tadGC4-IvMpw1Pa7mxWx-110">
          <mxGeometry x="100" y="40" width="80" height="80" as="geometry" />
        </mxCell>
        <mxCell id="L0GXj8PwuFrT2ReA4ehV-9" value="Lock" style="labelPosition=center;verticalLabelPosition=middle;align=center;html=1;shape=mxgraph.basic.shaded_button;dx=10;fillColor=#E6E6E6;strokeColor=none;" parent="tadGC4-IvMpw1Pa7mxWx-110" vertex="1">
          <mxGeometry x="190" y="40" width="80" height="80" as="geometry" />
        </mxCell>
        <mxCell id="tadGC4-IvMpw1Pa7mxWx-126" value="" style="dashed=0;verticalLabelPosition=bottom;verticalAlign=top;align=center;shape=mxgraph.gmdl.slider2;barPos=40;strokeColor=#3F51B5;opacity=100;strokeWidth=2;fillColor=#3F51B5;handleSize=10;shadow=0;rotation=-90;" vertex="1" parent="LFXs0zO8Hx01GmSGuNnJ-40">
          <mxGeometry x="510" y="480" width="310" height="10" as="geometry" />
        </mxCell>
        <mxCell id="tadGC4-IvMpw1Pa7mxWx-127" value="Volume" style="labelPosition=center;verticalLabelPosition=middle;align=center;html=1;shape=mxgraph.basic.shaded_button;dx=10;fillColor=#E6E6E6;strokeColor=none;" vertex="1" parent="LFXs0zO8Hx01GmSGuNnJ-40">
          <mxGeometry x="625" y="230" width="80" height="80" as="geometry" />
        </mxCell>
        <mxCell id="tadGC4-IvMpw1Pa7mxWx-135" value="Random Strobe&lt;span style=&quot;color: rgba(0, 0, 0, 0); font-family: monospace; font-size: 0px; text-align: start;&quot;&gt;%3CmxGraphModel%3E%3Croot%3E%3CmxCell%20id%3D%220%22%2F%3E%3CmxCell%20id%3D%221%22%20parent%3D%220%22%2F%3E%3CmxCell%20id%3D%222%22%20value%3D%22Random%20Pece%22%20style%3D%22labelPosition%3Dcenter%3BverticalLabelPosition%3Dmiddle%3Balign%3Dcenter%3Bhtml%3D1%3Bshape%3Dmxgraph.basic.shaded_button%3Bdx%3D10%3BfillColor%3D%23E6E6E6%3BstrokeColor%3Dnone%3B%22%20vertex%3D%221%22%20parent%3D%221%22%3E%3CmxGeometry%20x%3D%221230%22%20y%3D%222180%22%20width%3D%2280%22%20height%3D%2280%22%20as%3D%22geometry%22%2F%3E%3C%2FmxCell%3E%3C%2Froot%3E%3C%2FmxGraphModel%3E&lt;/span&gt;" style="labelPosition=center;verticalLabelPosition=middle;align=center;html=1;shape=mxgraph.basic.shaded_button;dx=10;fillColor=#E6E6E6;strokeColor=none;" vertex="1" parent="LFXs0zO8Hx01GmSGuNnJ-40">
          <mxGeometry x="15" y="40" width="80" height="80" as="geometry" />
        </mxCell>
        <mxCell id="tadGC4-IvMpw1Pa7mxWx-136" value="Sync Strobe" style="labelPosition=center;verticalLabelPosition=middle;align=center;html=1;shape=mxgraph.basic.shaded_button;dx=10;fillColor=#E6E6E6;strokeColor=none;" vertex="1" parent="LFXs0zO8Hx01GmSGuNnJ-40">
          <mxGeometry x="15" y="130" width="80" height="80" as="geometry" />
        </mxCell>
        <mxCell id="tadGC4-IvMpw1Pa7mxWx-137" value="" style="dashed=0;verticalLabelPosition=bottom;verticalAlign=top;align=center;shape=mxgraph.gmdl.slider2;barPos=40;strokeColor=#3F51B5;opacity=100;strokeWidth=2;fillColor=#3F51B5;handleSize=10;shadow=0;rotation=-90;" vertex="1" parent="LFXs0zO8Hx01GmSGuNnJ-40">
          <mxGeometry x="-100" y="380" width="310" height="10" as="geometry" />
        </mxCell>
        <mxCell id="LFXs0zO8Hx01GmSGuNnJ-42" value="Blinder" style="swimlane;" parent="1" vertex="1">
          <mxGeometry x="130" y="2570" width="100" height="490" as="geometry">
            <mxRectangle x="-810" y="-35" width="80" height="30" as="alternateBounds" />
          </mxGeometry>
        </mxCell>
        <mxCell id="LFXs0zO8Hx01GmSGuNnJ-86" value="" style="dashed=0;verticalLabelPosition=bottom;verticalAlign=top;align=center;shape=mxgraph.gmdl.slider2;barPos=49.35;strokeColor=#3F51B5;opacity=100;strokeWidth=2;fillColor=#3F51B5;handleSize=10;shadow=0;rotation=-90;" parent="LFXs0zO8Hx01GmSGuNnJ-42" vertex="1">
          <mxGeometry x="-105" y="190" width="310" height="10" as="geometry" />
        </mxCell>
        <mxCell id="LFXs0zO8Hx01GmSGuNnJ-87" value="Flash" style="labelPosition=center;verticalLabelPosition=middle;align=center;html=1;shape=mxgraph.basic.shaded_button;dx=10;fillColor=#E6E6E6;strokeColor=none;" parent="LFXs0zO8Hx01GmSGuNnJ-42" vertex="1">
          <mxGeometry x="10" y="390" width="80" height="80" as="geometry" />
        </mxCell>
        <mxCell id="LFXs0zO8Hx01GmSGuNnJ-43" value="Laser" style="swimlane;" parent="1" vertex="1">
          <mxGeometry x="2410" y="2570" width="120" height="130" as="geometry">
            <mxRectangle x="-810" y="-35" width="80" height="30" as="alternateBounds" />
          </mxGeometry>
        </mxCell>
        <mxCell id="LFXs0zO8Hx01GmSGuNnJ-44" value="Smoke" style="swimlane;" parent="1" vertex="1">
          <mxGeometry x="20" y="2570" width="100" height="120" as="geometry">
            <mxRectangle x="-810" y="-35" width="80" height="30" as="alternateBounds" />
          </mxGeometry>
        </mxCell>
        <mxCell id="LFXs0zO8Hx01GmSGuNnJ-88" value="Smoke" style="labelPosition=center;verticalLabelPosition=middle;align=center;html=1;shape=mxgraph.basic.shaded_button;dx=10;fillColor=#E6E6E6;strokeColor=none;" parent="LFXs0zO8Hx01GmSGuNnJ-44" vertex="1">
          <mxGeometry x="10" y="30" width="80" height="80" as="geometry" />
        </mxCell>
        <mxCell id="LFXs0zO8Hx01GmSGuNnJ-45" value="Spotlights" style="swimlane;" parent="1" vertex="1">
          <mxGeometry x="20" y="2700" width="100" height="120" as="geometry">
            <mxRectangle x="-810" y="-35" width="80" height="30" as="alternateBounds" />
          </mxGeometry>
        </mxCell>
        <mxCell id="LFXs0zO8Hx01GmSGuNnJ-92" value="ON / OFF" style="labelPosition=center;verticalLabelPosition=middle;align=center;html=1;shape=mxgraph.basic.shaded_button;dx=10;fillColor=#E6E6E6;strokeColor=none;" parent="LFXs0zO8Hx01GmSGuNnJ-45" vertex="1">
          <mxGeometry x="10" y="30" width="80" height="80" as="geometry" />
        </mxCell>
        <mxCell id="LFXs0zO8Hx01GmSGuNnJ-46" value="Par Lights" style="swimlane;" parent="1" vertex="1">
          <mxGeometry x="1920" y="2570" width="480" height="670" as="geometry">
            <mxRectangle x="-810" y="-35" width="80" height="30" as="alternateBounds" />
          </mxGeometry>
        </mxCell>
        <mxCell id="LFXs0zO8Hx01GmSGuNnJ-85" value="Lock" style="labelPosition=center;verticalLabelPosition=middle;align=center;html=1;shape=mxgraph.basic.shaded_button;dx=10;fillColor=#E6E6E6;strokeColor=none;" parent="LFXs0zO8Hx01GmSGuNnJ-46" vertex="1">
          <mxGeometry x="25" y="30" width="80" height="80" as="geometry" />
        </mxCell>
        <mxCell id="tadGC4-IvMpw1Pa7mxWx-131" value="" style="dashed=0;verticalLabelPosition=bottom;verticalAlign=top;align=center;shape=mxgraph.gmdl.slider2;barPos=40;strokeColor=#3F51B5;opacity=100;strokeWidth=2;fillColor=#3F51B5;handleSize=10;shadow=0;rotation=-90;" vertex="1" parent="LFXs0zO8Hx01GmSGuNnJ-46">
          <mxGeometry x="-90" y="480" width="310" height="10" as="geometry" />
        </mxCell>
        <mxCell id="tadGC4-IvMpw1Pa7mxWx-132" value="Volume" style="labelPosition=center;verticalLabelPosition=middle;align=center;html=1;shape=mxgraph.basic.shaded_button;dx=10;fillColor=#E6E6E6;strokeColor=none;" vertex="1" parent="LFXs0zO8Hx01GmSGuNnJ-46">
          <mxGeometry x="25" y="230" width="80" height="80" as="geometry" />
        </mxCell>
        <mxCell id="LFXs0zO8Hx01GmSGuNnJ-93" value="" style="endArrow=none;html=1;rounded=0;" parent="1" edge="1">
          <mxGeometry width="50" height="50" relative="1" as="geometry">
            <mxPoint x="60" y="2560" as="sourcePoint" />
            <mxPoint x="3380" y="2560" as="targetPoint" />
          </mxGeometry>
        </mxCell>
        <mxCell id="LFXs0zO8Hx01GmSGuNnJ-96" value="LED Stripes" style="swimlane;" parent="1" vertex="1">
          <mxGeometry x="1130" y="2570" width="780" height="670" as="geometry" />
        </mxCell>
        <mxCell id="LFXs0zO8Hx01GmSGuNnJ-97" value="Stripe choice" style="swimlane;horizontal=0;" parent="LFXs0zO8Hx01GmSGuNnJ-96" vertex="1">
          <mxGeometry x="565" y="30" width="205" height="120" as="geometry" />
        </mxCell>
        <mxCell id="LFXs0zO8Hx01GmSGuNnJ-98" value="All as one" style="labelPosition=center;verticalLabelPosition=middle;align=center;html=1;shape=mxgraph.basic.shaded_button;dx=10;fillColor=#E6E6E6;strokeColor=none;" parent="LFXs0zO8Hx01GmSGuNnJ-97" vertex="1">
          <mxGeometry x="30" y="20" width="80" height="80" as="geometry" />
        </mxCell>
        <mxCell id="LFXs0zO8Hx01GmSGuNnJ-99" value="Individually" style="labelPosition=center;verticalLabelPosition=middle;align=center;html=1;shape=mxgraph.basic.shaded_button;dx=10;fillColor=#E6E6E6;strokeColor=none;" parent="LFXs0zO8Hx01GmSGuNnJ-97" vertex="1">
          <mxGeometry x="120" y="20" width="80" height="80" as="geometry" />
        </mxCell>
        <mxCell id="LFXs0zO8Hx01GmSGuNnJ-100" value="Animations" style="swimlane;horizontal=0;" parent="LFXs0zO8Hx01GmSGuNnJ-96" vertex="1">
          <mxGeometry x="190" y="160" width="580" height="190" as="geometry" />
        </mxCell>
        <mxCell id="LFXs0zO8Hx01GmSGuNnJ-101" value="OFF" style="labelPosition=center;verticalLabelPosition=middle;align=center;html=1;shape=mxgraph.basic.shaded_button;dx=10;fillColor=#E6E6E6;strokeColor=none;" parent="LFXs0zO8Hx01GmSGuNnJ-100" vertex="1">
          <mxGeometry x="35" y="10" width="80" height="80" as="geometry" />
        </mxCell>
        <mxCell id="LFXs0zO8Hx01GmSGuNnJ-102" value="RANDOM" style="labelPosition=center;verticalLabelPosition=middle;align=center;html=1;shape=mxgraph.basic.shaded_button;dx=10;fillColor=#E6E6E6;strokeColor=none;" parent="LFXs0zO8Hx01GmSGuNnJ-100" vertex="1">
          <mxGeometry x="125" y="10" width="80" height="80" as="geometry" />
        </mxCell>
        <mxCell id="LFXs0zO8Hx01GmSGuNnJ-103" value="RAINDROP" style="labelPosition=center;verticalLabelPosition=middle;align=center;html=1;shape=mxgraph.basic.shaded_button;dx=10;fillColor=#E6E6E6;strokeColor=none;" parent="LFXs0zO8Hx01GmSGuNnJ-100" vertex="1">
          <mxGeometry x="305" y="10" width="80" height="80" as="geometry" />
        </mxCell>
        <mxCell id="LFXs0zO8Hx01GmSGuNnJ-104" value="SNAKE" style="labelPosition=center;verticalLabelPosition=middle;align=center;html=1;shape=mxgraph.basic.shaded_button;dx=10;fillColor=#E6E6E6;strokeColor=none;" parent="LFXs0zO8Hx01GmSGuNnJ-100" vertex="1">
          <mxGeometry x="215" y="10" width="80" height="80" as="geometry" />
        </mxCell>
        <mxCell id="LFXs0zO8Hx01GmSGuNnJ-105" value="" style="labelPosition=center;verticalLabelPosition=middle;align=center;html=1;shape=mxgraph.basic.shaded_button;dx=10;fillColor=#E6E6E6;strokeColor=none;" parent="LFXs0zO8Hx01GmSGuNnJ-100" vertex="1">
          <mxGeometry x="395" y="10" width="80" height="80" as="geometry" />
        </mxCell>
        <mxCell id="LFXs0zO8Hx01GmSGuNnJ-106" value="Always" style="labelPosition=center;verticalLabelPosition=middle;align=center;html=1;shape=mxgraph.basic.shaded_button;dx=10;fillColor=#E6E6E6;strokeColor=none;" parent="LFXs0zO8Hx01GmSGuNnJ-100" vertex="1">
          <mxGeometry x="35" y="100" width="80" height="80" as="geometry" />
        </mxCell>
        <mxCell id="LFXs0zO8Hx01GmSGuNnJ-107" value="SPARCLES" style="labelPosition=center;verticalLabelPosition=middle;align=center;html=1;shape=mxgraph.basic.shaded_button;dx=10;fillColor=#E6E6E6;strokeColor=none;" parent="LFXs0zO8Hx01GmSGuNnJ-100" vertex="1">
          <mxGeometry x="125" y="100" width="80" height="80" as="geometry" />
        </mxCell>
        <mxCell id="LFXs0zO8Hx01GmSGuNnJ-108" value="&lt;div&gt;Sliding&lt;/div&gt;&lt;div&gt;Blocks&lt;/div&gt;" style="labelPosition=center;verticalLabelPosition=middle;align=center;html=1;shape=mxgraph.basic.shaded_button;dx=10;fillColor=#E6E6E6;strokeColor=none;" parent="LFXs0zO8Hx01GmSGuNnJ-100" vertex="1">
          <mxGeometry x="215" y="100" width="80" height="80" as="geometry" />
        </mxCell>
        <mxCell id="LFXs0zO8Hx01GmSGuNnJ-109" value="" style="labelPosition=center;verticalLabelPosition=middle;align=center;html=1;shape=mxgraph.basic.shaded_button;dx=10;fillColor=#E6E6E6;strokeColor=none;" parent="LFXs0zO8Hx01GmSGuNnJ-100" vertex="1">
          <mxGeometry x="305" y="100" width="80" height="80" as="geometry" />
        </mxCell>
        <mxCell id="LFXs0zO8Hx01GmSGuNnJ-110" value="" style="labelPosition=center;verticalLabelPosition=middle;align=center;html=1;shape=mxgraph.basic.shaded_button;dx=10;fillColor=#E6E6E6;strokeColor=none;" parent="LFXs0zO8Hx01GmSGuNnJ-100" vertex="1">
          <mxGeometry x="395" y="100" width="80" height="80" as="geometry" />
        </mxCell>
        <mxCell id="LFXs0zO8Hx01GmSGuNnJ-111" value="" style="labelPosition=center;verticalLabelPosition=middle;align=center;html=1;shape=mxgraph.basic.shaded_button;dx=10;fillColor=#E6E6E6;strokeColor=none;" parent="LFXs0zO8Hx01GmSGuNnJ-100" vertex="1">
          <mxGeometry x="490" y="10" width="80" height="80" as="geometry" />
        </mxCell>
        <mxCell id="LFXs0zO8Hx01GmSGuNnJ-112" value="" style="labelPosition=center;verticalLabelPosition=middle;align=center;html=1;shape=mxgraph.basic.shaded_button;dx=10;fillColor=#E6E6E6;strokeColor=none;" parent="LFXs0zO8Hx01GmSGuNnJ-100" vertex="1">
          <mxGeometry x="490" y="100" width="80" height="80" as="geometry" />
        </mxCell>
        <mxCell id="LFXs0zO8Hx01GmSGuNnJ-113" value="Direction" style="swimlane;horizontal=0;" parent="LFXs0zO8Hx01GmSGuNnJ-96" vertex="1">
          <mxGeometry x="190" y="360" width="230" height="240" as="geometry" />
        </mxCell>
        <mxCell id="LFXs0zO8Hx01GmSGuNnJ-114" value="UP" style="labelPosition=center;verticalLabelPosition=middle;align=center;html=1;shape=mxgraph.basic.shaded_button;dx=10;fillColor=#E6E6E6;strokeColor=none;" parent="LFXs0zO8Hx01GmSGuNnJ-113" vertex="1">
          <mxGeometry x="90" width="80" height="80" as="geometry" />
        </mxCell>
        <mxCell id="LFXs0zO8Hx01GmSGuNnJ-115" value="DOWN" style="labelPosition=center;verticalLabelPosition=middle;align=center;html=1;shape=mxgraph.basic.shaded_button;dx=10;fillColor=#E6E6E6;strokeColor=none;" parent="LFXs0zO8Hx01GmSGuNnJ-113" vertex="1">
          <mxGeometry x="90" y="160" width="80" height="80" as="geometry" />
        </mxCell>
        <mxCell id="LFXs0zO8Hx01GmSGuNnJ-117" value="BEAT" style="labelPosition=center;verticalLabelPosition=middle;align=center;html=1;shape=mxgraph.basic.shaded_button;dx=10;fillColor=#E6E6E6;strokeColor=none;" parent="LFXs0zO8Hx01GmSGuNnJ-96" vertex="1">
          <mxGeometry x="390" y="30" width="170" height="120" as="geometry" />
        </mxCell>
        <mxCell id="LFXs0zO8Hx01GmSGuNnJ-118" value="&lt;div&gt;ANIMATION&lt;/div&gt;&lt;div&gt;TRIGGER&lt;/div&gt;" style="labelPosition=center;verticalLabelPosition=middle;align=center;html=1;shape=mxgraph.basic.shaded_button;dx=10;fillColor=#E6E6E6;strokeColor=none;" parent="LFXs0zO8Hx01GmSGuNnJ-96" vertex="1">
          <mxGeometry x="480" y="520" width="140" height="70" as="geometry" />
        </mxCell>
        <mxCell id="LFXs0zO8Hx01GmSGuNnJ-120" value="FLASH FADE" style="labelPosition=center;verticalLabelPosition=middle;align=center;html=1;shape=mxgraph.basic.shaded_button;dx=10;fillColor=#E6E6E6;strokeColor=none;" parent="LFXs0zO8Hx01GmSGuNnJ-96" vertex="1">
          <mxGeometry x="520" y="440" width="200" height="70" as="geometry" />
        </mxCell>
        <mxCell id="LFXs0zO8Hx01GmSGuNnJ-121" value="FLASH HOLD" style="labelPosition=center;verticalLabelPosition=middle;align=center;html=1;shape=mxgraph.basic.shaded_button;dx=10;fillColor=#E6E6E6;strokeColor=none;" parent="LFXs0zO8Hx01GmSGuNnJ-96" vertex="1">
          <mxGeometry x="520" y="360" width="200" height="70" as="geometry" />
        </mxCell>
        <mxCell id="tadGC4-IvMpw1Pa7mxWx-128" value="" style="dashed=0;verticalLabelPosition=bottom;verticalAlign=top;align=center;shape=mxgraph.gmdl.slider2;barPos=40;strokeColor=#3F51B5;opacity=100;strokeWidth=2;fillColor=#3F51B5;handleSize=10;shadow=0;rotation=-90;" vertex="1" parent="LFXs0zO8Hx01GmSGuNnJ-96">
          <mxGeometry x="-95" y="480" width="310" height="10" as="geometry" />
        </mxCell>
        <mxCell id="tadGC4-IvMpw1Pa7mxWx-129" value="Volume" style="labelPosition=center;verticalLabelPosition=middle;align=center;html=1;shape=mxgraph.basic.shaded_button;dx=10;fillColor=#E6E6E6;strokeColor=none;" vertex="1" parent="LFXs0zO8Hx01GmSGuNnJ-96">
          <mxGeometry x="20" y="230" width="80" height="80" as="geometry" />
        </mxCell>
        <mxCell id="DIamjsAeuccOloleiY1Q-16" value="Master !This section is only controllable if the KEY is present!" style="swimlane;whiteSpace=wrap;html=1;fontSize=12;" parent="1" vertex="1">
          <mxGeometry x="1820" y="-1000" width="1160" height="1360" as="geometry" />
        </mxCell>
        <mxCell id="DIamjsAeuccOloleiY1Q-5" value="&lt;div&gt;&lt;font style=&quot;font-size: 27px;&quot;&gt;Modus&lt;/font&gt;&lt;/div&gt;" style="shape=image;html=1;verticalAlign=top;verticalLabelPosition=bottom;labelBackgroundColor=#ffffff;imageAspect=0;aspect=fixed;image=https://cdn3.iconfinder.com/data/icons/energy-and-power-glyph-24-px/24/Analog_device_gauge_gauge_meter_pressure_gauge_speedometer-128.png" parent="DIamjsAeuccOloleiY1Q-16" vertex="1">
          <mxGeometry x="70" y="80" width="180" height="180" as="geometry" />
        </mxCell>
        <mxCell id="DIamjsAeuccOloleiY1Q-8" value="MANUAL" style="text;html=1;align=center;verticalAlign=middle;resizable=0;points=[];autosize=1;strokeColor=none;fillColor=none;fontSize=12;" parent="DIamjsAeuccOloleiY1Q-16" vertex="1">
          <mxGeometry x="10" y="160" width="70" height="30" as="geometry" />
        </mxCell>
        <mxCell id="DIamjsAeuccOloleiY1Q-10" value="&lt;div&gt;AUTO&lt;/div&gt;&lt;div&gt;PARTY&lt;br&gt;&lt;/div&gt;" style="text;html=1;align=center;verticalAlign=middle;resizable=0;points=[];autosize=1;strokeColor=none;fillColor=none;fontSize=12;" parent="DIamjsAeuccOloleiY1Q-16" vertex="1">
          <mxGeometry x="60" y="80" width="60" height="40" as="geometry" />
        </mxCell>
        <mxCell id="DIamjsAeuccOloleiY1Q-11" value="&lt;div&gt;AUTO&lt;/div&gt;&lt;div&gt;CALM&lt;br&gt;&lt;/div&gt;" style="text;html=1;align=center;verticalAlign=middle;resizable=0;points=[];autosize=1;strokeColor=none;fillColor=none;fontSize=12;" parent="DIamjsAeuccOloleiY1Q-16" vertex="1">
          <mxGeometry x="190" y="80" width="60" height="40" as="geometry" />
        </mxCell>
        <mxCell id="DIamjsAeuccOloleiY1Q-12" value="LOCK / OFF" style="text;html=1;align=center;verticalAlign=middle;resizable=0;points=[];autosize=1;strokeColor=none;fillColor=none;fontSize=12;" parent="DIamjsAeuccOloleiY1Q-16" vertex="1">
          <mxGeometry x="240" y="160" width="90" height="30" as="geometry" />
        </mxCell>
        <mxCell id="DIamjsAeuccOloleiY1Q-17" value="&lt;div&gt;(Toggle)&lt;/div&gt;&lt;div&gt;Activate remote controll&lt;br&gt;&lt;/div&gt;" style="labelPosition=center;verticalLabelPosition=middle;align=center;html=1;shape=mxgraph.basic.shaded_button;dx=10;fillColor=#E6E6E6;strokeColor=none;" parent="DIamjsAeuccOloleiY1Q-16" vertex="1">
          <mxGeometry x="720" y="40" width="170" height="120" as="geometry" />
        </mxCell>
        <mxCell id="DIamjsAeuccOloleiY1Q-18" value="&lt;div&gt;(Toggle)&lt;/div&gt;&lt;div&gt;Activate special devices&lt;/div&gt;&lt;div&gt;(Gloves, Eggs, ...)&lt;br&gt;&lt;/div&gt;" style="labelPosition=center;verticalLabelPosition=middle;align=center;html=1;shape=mxgraph.basic.shaded_button;dx=10;fillColor=#E6E6E6;strokeColor=none;" parent="DIamjsAeuccOloleiY1Q-16" vertex="1">
          <mxGeometry x="910" y="40" width="170" height="120" as="geometry" />
        </mxCell>
        <mxCell id="DIamjsAeuccOloleiY1Q-19" value="&lt;div&gt;(Toggle)&lt;/div&gt;&lt;div&gt;Activate Laser&lt;/div&gt;&lt;div&gt;(Turns off if Key is unplugged)&lt;br&gt;&lt;/div&gt;" style="labelPosition=center;verticalLabelPosition=middle;align=center;html=1;shape=mxgraph.basic.shaded_button;dx=10;fillColor=#E6E6E6;strokeColor=none;" parent="DIamjsAeuccOloleiY1Q-16" vertex="1">
          <mxGeometry x="720" y="320" width="170" height="120" as="geometry" />
        </mxCell>
        <mxCell id="DIamjsAeuccOloleiY1Q-20" value="&lt;div&gt;(Toggle)&lt;/div&gt;&lt;div&gt;Activate Strobe&lt;br&gt;&lt;/div&gt;" style="labelPosition=center;verticalLabelPosition=middle;align=center;html=1;shape=mxgraph.basic.shaded_button;dx=10;fillColor=#E6E6E6;strokeColor=none;" parent="DIamjsAeuccOloleiY1Q-16" vertex="1">
          <mxGeometry x="720" y="180" width="170" height="120" as="geometry" />
        </mxCell>
        <mxCell id="DIamjsAeuccOloleiY1Q-21" value="&lt;div&gt;(Toggle)&lt;/div&gt;&lt;div&gt;Activate Fogmachine&lt;br&gt;&lt;/div&gt;" style="labelPosition=center;verticalLabelPosition=middle;align=center;html=1;shape=mxgraph.basic.shaded_button;dx=10;fillColor=#E6E6E6;strokeColor=none;" parent="DIamjsAeuccOloleiY1Q-16" vertex="1">
          <mxGeometry x="910" y="180" width="170" height="120" as="geometry" />
        </mxCell>
        <mxCell id="DIamjsAeuccOloleiY1Q-22" value="&lt;div&gt;RESET KEYBOAD&lt;/div&gt;&lt;div&gt;(Arduino)&lt;br&gt;&lt;/div&gt;" style="labelPosition=center;verticalLabelPosition=middle;align=center;html=1;shape=mxgraph.basic.shaded_button;dx=10;fillColor=#E6E6E6;strokeColor=none;" parent="DIamjsAeuccOloleiY1Q-16" vertex="1">
          <mxGeometry x="720" y="560" width="170" height="120" as="geometry" />
        </mxCell>
        <mxCell id="DIamjsAeuccOloleiY1Q-23" value="RESET RPI PROGRAM" style="labelPosition=center;verticalLabelPosition=middle;align=center;html=1;shape=mxgraph.basic.shaded_button;dx=10;fillColor=#E6E6E6;strokeColor=none;" parent="DIamjsAeuccOloleiY1Q-16" vertex="1">
          <mxGeometry x="910" y="560" width="170" height="120" as="geometry" />
        </mxCell>
        <mxCell id="DIamjsAeuccOloleiY1Q-24" value="RESET RPI PROGRAM" style="labelPosition=center;verticalLabelPosition=middle;align=center;html=1;shape=mxgraph.basic.shaded_button;dx=10;fillColor=#E6E6E6;strokeColor=none;" parent="DIamjsAeuccOloleiY1Q-16" vertex="1">
          <mxGeometry x="720" y="700" width="170" height="120" as="geometry" />
        </mxCell>
        <mxCell id="DIamjsAeuccOloleiY1Q-25" value="REBOOT RPI" style="labelPosition=center;verticalLabelPosition=middle;align=center;html=1;shape=mxgraph.basic.shaded_button;dx=10;fillColor=#E6E6E6;strokeColor=none;" parent="DIamjsAeuccOloleiY1Q-16" vertex="1">
          <mxGeometry x="910" y="700" width="170" height="120" as="geometry" />
        </mxCell>
        <mxCell id="DIamjsAeuccOloleiY1Q-26" value="&lt;div&gt;PHYSICAL CUT&lt;/div&gt;&lt;div&gt;LED OUTPUT&lt;br&gt;&lt;/div&gt;" style="labelPosition=center;verticalLabelPosition=middle;align=center;html=1;shape=mxgraph.basic.shaded_button;dx=10;fillColor=#E6E6E6;strokeColor=none;" parent="DIamjsAeuccOloleiY1Q-16" vertex="1">
          <mxGeometry x="720" y="840" width="170" height="120" as="geometry" />
        </mxCell>
        <mxCell id="DIamjsAeuccOloleiY1Q-27" value="&lt;div&gt;PHYSICAL CUT&lt;/div&gt;&lt;div&gt;DMX OUTPUT&lt;br&gt;&lt;/div&gt;" style="labelPosition=center;verticalLabelPosition=middle;align=center;html=1;shape=mxgraph.basic.shaded_button;dx=10;fillColor=#E6E6E6;strokeColor=none;" parent="DIamjsAeuccOloleiY1Q-16" vertex="1">
          <mxGeometry x="910" y="840" width="170" height="120" as="geometry" />
        </mxCell>
        <mxCell id="Si6ZbvaaQqSnE2KLARDV-240" value="RPI Monitor ?" style="shape=image;html=1;verticalAlign=top;verticalLabelPosition=bottom;labelBackgroundColor=#ffffff;imageAspect=0;image=https://cdn1.iconfinder.com/data/icons/100-basic-for-user-interface/32/29-Screen-128.png" parent="DIamjsAeuccOloleiY1Q-16" vertex="1">
          <mxGeometry x="20" y="320" width="629" height="625" as="geometry" />
        </mxCell>
        <mxCell id="DIamjsAeuccOloleiY1Q-31" value="ACCESS KEY" style="points=[[0,0.5,0],[0.24,0,0],[0.5,0.28,0],[0.995,0.475,0],[0.5,0.72,0],[0.24,1,0]];verticalLabelPosition=bottom;sketch=0;html=1;verticalAlign=top;aspect=fixed;align=center;pointerEvents=1;shape=mxgraph.cisco19.key;fillColor=#005073;strokeColor=none;fontSize=12;" parent="DIamjsAeuccOloleiY1Q-16" vertex="1">
          <mxGeometry x="370" y="120" width="311.11" height="140" as="geometry" />
        </mxCell>
        <mxCell id="DIamjsAeuccOloleiY1Q-35" value="&lt;div&gt;(Toggle)&lt;/div&gt;&lt;div&gt;Glove mode&lt;/div&gt;&lt;div&gt;(Sensors are more sensitive&lt;/div&gt;&lt;div&gt;to be able to operate keyboard&lt;/div&gt;&lt;div&gt;outside in the cold)&lt;br&gt;&lt;/div&gt;" style="labelPosition=center;verticalLabelPosition=middle;align=center;html=1;shape=mxgraph.basic.shaded_button;dx=10;fillColor=#E6E6E6;strokeColor=none;" parent="DIamjsAeuccOloleiY1Q-16" vertex="1">
          <mxGeometry x="910" y="320" width="170" height="120" as="geometry" />
        </mxCell>
      </root>
    </mxGraphModel>
  </diagram>
</mxfile>
